<?xml version="1.0" standalone="no"?>
<!DOCTYPE svg PUBLIC "-//W3C//DTD SVG 1.1//EN" "http://www.w3.org/Graphics/SVG/1.1/DTD/svg11.dtd" >
<svg xmlns="http://www.w3.org/2000/svg">
<metadata></metadata>
<defs>
<font id="brandongrotesque-lightbook" horiz-adv-x="995" >
<font-face units-per-em="2048" ascent="1425" descent="-623" />
<missing-glyph horiz-adv-x="444" />
<glyph unicode="&#xfb01;" horiz-adv-x="1058" d="M49 770v23q0 27 27 26h133v273q0 90 27.5 158.5t73.5 113.5t107.5 67.5t127.5 22.5q57 0 106 -12t87 -30.5t65.5 -37t40.5 -31.5q6 -4 6 -13t-4 -17l-23 -33q-10 -16 -32 -2q-14 8 -37 24.5t-53.5 32t-69.5 26.5t-86 11t-91 -17.5t-79 -52t-56.5 -88t-21.5 -122.5v-273 h580q27 0 26 -26v-766q0 -12 -9 -19.5t-20 -7.5h-34q-27 0 -27 27v712h-516v-712q0 -27 -27 -27h-34q-27 0 -27 27v712h-133q-16 0 -21.5 9.5t-5.5 21.5z" />
<glyph unicode="&#xfb02;" horiz-adv-x="1069" d="M49 766v27q0 27 27 26h135v283q0 90 27.5 156.5t73.5 109.5t106.5 64.5t126.5 21.5q59 0 108 -14.5t85 -32.5t58.5 -36.5t32.5 -27.5l9 66q4 10 10 17.5t24 7.5h15q27 0 26 -27v-1380q0 -12 -9 -19.5t-19 -7.5h-35q-27 0 -27 27v1212q-8 6 -29.5 27.5t-55 43t-81 39 t-106.5 17.5q-47 0 -92 -14.5t-81 -47t-57.5 -83t-21.5 -119.5v-283h303q27 0 27 -24v-31q0 -25 -27 -25h-303v-712q0 -27 -27 -27h-36q-25 0 -25 27v712h-135q-14 0 -20.5 8.5t-6.5 18.5z" />
<glyph horiz-adv-x="0" />
<glyph unicode="&#xd;" horiz-adv-x="0" />
<glyph unicode=" "  horiz-adv-x="444" />
<glyph unicode="&#x09;" horiz-adv-x="444" />
<glyph unicode="&#xa0;" horiz-adv-x="444" />
<glyph unicode="!" horiz-adv-x="606" d="M219 61q0 35 24.5 58.5t59.5 23.5t58.5 -23.5t23.5 -58.5t-23.5 -58t-58.5 -23t-59.5 23t-24.5 58zM248 1157v250q0 16 10 21.5t21 5.5h51q27 0 26 -27v-248l-18 -584q0 -10 -8 -17t-19 -7h-16q-10 0 -18.5 7t-8.5 17z" />
<glyph unicode="&#x22;" horiz-adv-x="612" d="M115 1038v369q0 27 26 27h43q29 0 25 -33l-33 -363q-4 -23 -20 -22h-23q-18 0 -18 22zM422 1038v369q0 27 27 27h43q29 0 24 -33l-33 -363q-4 -23 -20 -22h-23q-18 0 -18 22z" />
<glyph unicode="#" horiz-adv-x="1126" d="M94 449v10q0 27 25 26h180l63 373h-184q-27 0 -26 27v12q0 27 26 27h195l82 487q2 12 9 17.5t17 5.5h13q12 0 18 -9.5t4 -21.5l-80 -479h334l82 487q2 12 9 17.5t18 5.5h14q12 0 17 -9.5t3 -21.5l-79 -479h170q25 0 24 -27v-12q0 -27 -22 -27h-181l-63 -373h182 q27 0 27 -26v-10q0 -27 -25 -27h-194l-68 -399q-4 -23 -27 -23h-12q-31 0 -24 31l67 391h-336l-65 -399q-4 -23 -27 -23h-12q-31 0 -25 31l68 391h-172q-25 0 -25 27zM365 485h333l62 373h-332z" />
<glyph unicode="$" horiz-adv-x="1091" d="M110.5 164.5q-4.5 9.5 8.5 25.5l22 29q12 16 24.5 10t27.5 -16q12 -10 40.5 -32.5t71.5 -46t99.5 -43t121.5 -23.5v614q-94 31 -169.5 65.5t-130 80.5t-84 109.5t-29.5 154.5q0 55 22.5 116.5t71.5 113.5t128 88t191 42v76q0 14 9.5 20t19.5 6h8q27 0 27 -26v-78 q70 -4 127 -20.5t100 -34.5q49 -23 90 -47q8 -6 14.5 -15.5t-3.5 -25.5l-21 -31q-10 -16 -21.5 -14t-21.5 6q-2 2 -23.5 15t-57.5 28.5t-83 31t-100 19.5q0 -152 -1 -301.5t-1 -300.5q96 -35 174 -72t132 -86t83 -112.5t29 -147.5q0 -74 -34 -138.5t-91.5 -112.5t-133 -77.5 t-159.5 -33.5v-222q0 -12 -9.5 -18t-19.5 -6q-12 0 -22.5 5t-10.5 19v222q-84 4 -153.5 27.5t-121.5 52t-84 54t-42 33.5t-14.5 17.5zM207 1094q0 -63 22.5 -110.5t64.5 -83.5t100.5 -63.5t131.5 -52.5v580q-88 -4 -148.5 -30.5t-98 -65.5t-55 -85t-17.5 -89zM588 68 q66 4 123 26.5t100 59t68.5 85t25.5 101.5q0 121 -85 191.5t-232 123.5v-587z" />
<glyph unicode="%" horiz-adv-x="1409" d="M84 1171q0 59 22.5 110.5t60.5 90.5t89 60.5t111 21.5q57 0 109 -21.5t90 -60.5t60.5 -90t22.5 -111q0 -59 -22.5 -110t-60.5 -90t-90 -60.5t-109 -21.5q-59 0 -110.5 21.5t-89.5 60.5t-60.5 90t-22.5 110zM162 1171q0 -43 15.5 -80.5t43 -65.5t65.5 -44t81 -16t79.5 16 t64.5 44t44 65.5t16 80.5q0 86 -59 145.5t-145 59.5q-43 0 -81 -16.5t-65.5 -44t-43 -64.5t-15.5 -80zM242 11.5q-4 11.5 4 23.5l778 1388q4 8 11 9.5t14 1.5h36q14 0 19.5 -12.5t-2.5 -26.5l-780 -1381q-8 -14 -25 -14h-37q-14 0 -18 11.5zM725 260q0 59 21.5 111.5 t60.5 90.5t90 60.5t111 22.5q57 0 109 -22.5t90 -60.5t60.5 -90.5t22.5 -111.5t-22.5 -110.5t-60.5 -89t-90 -60.5t-109 -23q-59 0 -110.5 23t-90.5 60.5t-60.5 89t-21.5 110.5zM801 260q0 -43 16.5 -81t44 -65.5t65.5 -43t81 -15.5t79.5 15.5t64.5 43t44 65.5t16 81 q0 86 -59 145.5t-145 59.5q-43 0 -81 -16.5t-65.5 -44t-44 -64.5t-16.5 -80z" />
<glyph unicode="&#x26;" horiz-adv-x="1388" d="M184 354q0 80 27 144.5t70 115t97 89t109 67.5l-30 33q-33 37 -66 73.5t-57.5 77.5t-39.5 86t-13 97q0 53 20.5 109.5t63.5 102.5t108.5 75.5t157.5 29.5q82 0 144.5 -25.5t103.5 -68.5t62.5 -99.5t21.5 -115.5q0 -63 -30 -120.5t-78 -107t-108.5 -90.5t-121.5 -71 l417 -414q59 94 91 201.5t32 216.5q0 8 -1 20.5t-1 20.5q0 18 17 18h43q18 0 24 -18q4 -10 4 -21.5v-19.5q0 -123 -38.5 -247t-108.5 -230l213 -211q12 -10 16 -23.5t-8 -23.5l-33 -31q-12 -12 -22 -8t-19 12l-204 207q-88 -104 -207 -164.5t-267 -60.5q-92 0 -164.5 30.5 t-121.5 81.5t-76 118.5t-27 143.5zM274 354q0 -61 22.5 -114.5t62.5 -93.5t95.5 -62.5t120.5 -22.5q129 0 232.5 55.5t181.5 147.5l-444 451q-49 -27 -98.5 -62t-87 -79t-61.5 -98t-24 -122zM367 1135q-2 -72 41 -137.5t98 -123.5q16 -14 29.5 -28.5t29.5 -30.5 q55 29 110.5 62.5t99.5 74.5t70.5 88t26.5 103q0 43 -15 85t-46 73.5t-78 52t-108 20.5q-66 0 -115 -21.5t-81 -55t-47 -76.5t-15 -86z" />
<glyph unicode="'" horiz-adv-x="305" d="M115 1038v369q0 27 26 27h43q29 0 25 -33l-33 -363q-4 -23 -20 -22h-23q-18 0 -18 22z" />
<glyph unicode="(" horiz-adv-x="704" d="M129 645q0 225 43 378t112.5 247t157.5 136t176 46q25 0 25 -18l2 -31q4 -25 -16 -25q-90 -12 -165 -59t-129 -136t-85 -221.5t-31 -316.5t31 -316t85 -221.5t129 -136.5t165 -59q20 0 16 -25l-2 -30q0 -20 -25 -17q-88 4 -176 45t-157.5 135.5t-112.5 247t-43 377.5z " />
<glyph unicode=")" horiz-adv-x="704" d="M59 -113q-4 25 19 25q90 12 164.5 59t129 136.5t84 221.5t29.5 316t-29.5 316.5t-84 221.5t-129 136t-164.5 59q-23 0 -19 25l2 31q2 18 27 18q88 -4 175 -46t156.5 -136t112.5 -247t43 -378t-43 -377.5t-112.5 -247t-156.5 -135.5t-175 -45q-23 -2 -27 17z" />
<glyph unicode="*" horiz-adv-x="696" d="M86 1263.5q-2 10.5 2 20.5l12 21q10 16 33 4l182 -113l-2 211q0 27 27 27h16q27 0 27 -27l-2 -211l180 115q18 10 35 -8l10 -17q10 -23 -8 -35l-188 -114l190 -115q8 -4 10 -14.5t-2 -18.5l-10 -18q-14 -23 -37 -8l-180 114l2 -211q0 -27 -27 -26h-16q-27 0 -27 26l2 211 l-180 -112q-20 -14 -35 8l-10 16q-6 10 -3 20.5t11 14.5l187 113l-189 112q-8 4 -10 14.5z" />
<glyph unicode="+" horiz-adv-x="1034" d="M96 694v31q0 27 27 27h352v354q0 25 27 24h33q27 0 26 -24v-354h350q27 0 27 -27v-31q0 -27 -27 -26h-350v-351q0 -27 -26 -26h-33q-27 0 -27 26v351h-352q-27 0 -27 26z" />
<glyph unicode="," horiz-adv-x="473" d="M145 61q0 37 24 58.5t62 21.5q45 0 80 -45t35 -147q0 -61 -17.5 -110.5t-42 -85.5t-49 -58.5t-38.5 -30.5q-25 -14 -35 0l-17 21q-14 16 9 32q4 2 20.5 15.5t35.5 38t36.5 59.5t21.5 82q2 45 -10 78q-16 -10 -33 -10q-41 0 -61.5 24t-20.5 57z" />
<glyph unicode="-" horiz-adv-x="978" d="M233 500v22q0 27 25 27h463q27 0 27 -27v-22q0 -27 -27 -27h-463q-25 0 -25 27z" />
<glyph unicode="." horiz-adv-x="456" d="M145 61q0 35 25 58.5t59 23.5q35 0 58.5 -23.5t23.5 -58.5t-23.5 -58t-58.5 -23t-59.5 23t-24.5 58z" />
<glyph unicode="/" horiz-adv-x="669" d="M84 29l453 1388q6 16 26 17h29q14 0 21.5 -8.5t2.5 -20.5l-452 -1387q-6 -18 -27 -18h-31q-12 0 -19 7t-3 22z" />
<glyph unicode="0" horiz-adv-x="1318" d="M158 698q0 168 33.5 301.5t97 226.5t157 142t213.5 49q119 0 213.5 -49t158 -142t97 -226.5t33.5 -301.5t-33.5 -301t-97 -226t-158 -142t-213.5 -49q-121 0 -214 49t-156.5 142t-97 226t-33.5 301zM248 698q0 -305 106 -470t305 -165t304.5 165t105.5 470 q0 301 -105.5 467t-304.5 166t-305 -166t-106 -467z" />
<glyph unicode="1" horiz-adv-x="659" d="M41 1087q-14 16 4 31l328 277h30q12 0 21.5 -6.5t9.5 -18.5v-1343q0 -27 -26 -27h-41q-27 0 -27 27v1230l-244 -200q-18 -14 -30 2z" />
<glyph unicode="2" horiz-adv-x="1073" d="M82 25v36l543 545q109 109 168 207t59 199q0 57 -20.5 114.5t-63.5 101.5t-107.5 71.5t-152.5 27.5q-70 0 -124 -21.5t-92 -50t-61.5 -56.5t-33.5 -38q-18 -23 -41 -6l-25 21q-18 18 -4 36q39 55 94 101q47 39 119 70.5t168 31.5q109 0 190.5 -32.5t137 -88t84 -128 t28.5 -152.5q0 -135 -73.5 -245t-184.5 -220l-467 -465h688q27 0 27 -27v-30q0 -27 -27 -27h-802q-12 0 -19.5 7t-7.5 18z" />
<glyph unicode="3" horiz-adv-x="1118" d="M106 162q-18 20 0 35l33 26q10 10 18.5 7t18.5 -13q18 -16 44 -43t66 -51.5t97 -43t141 -18.5q80 0 146.5 21.5t115 61.5t75 97.5t26.5 127.5q0 74 -33 130t-85 94t-117.5 56.5t-133.5 18.5h-190q-27 0 -27 26v37q0 25 29 25h188q55 0 114.5 15t107.5 49t79 88.5 t31 131.5q0 63 -24.5 116.5t-66.5 92.5t-98.5 59.5t-121.5 20.5q-74 0 -130.5 -19.5t-96.5 -46t-63.5 -51t-31.5 -34.5q-6 -8 -15 -10.5t-20 6.5l-30 24q-10 6 -10.5 16.5t8.5 18.5q43 51 102 90q49 35 121.5 63.5t165.5 28.5q88 0 162.5 -26.5t129 -74.5t85 -114.5 t30.5 -148.5q0 -59 -20.5 -112.5t-52 -96.5t-73.5 -74t-85 -47v-4q49 -16 97 -48t86 -77t61.5 -100.5t23.5 -116.5q0 -84 -32.5 -157t-92 -126t-145.5 -82.5t-193 -29.5q-94 0 -164.5 21.5t-120 50t-81.5 60.5t-48 50z" />
<glyph unicode="4" horiz-adv-x="1193" d="M31 350v35l837 1032h37q23 0 23 -22q0 -250 1 -498t1 -498h155q27 0 27 -24v-27q0 -27 -27 -26h-155v-295q0 -27 -27 -27q-18 0 -41.5 1t-23.5 26v292h-772q-35 0 -35 31zM145 401h697v852z" />
<glyph unicode="5" horiz-adv-x="1116" d="M132 176q-1 8 11 21q8 6 14.5 13t14.5 13q20 16 35 -4q12 -16 38.5 -42.5t67.5 -51.5t98.5 -43.5t133.5 -18.5q86 0 156.5 32t121.5 86.5t79 124t28 145.5q0 154 -96.5 247t-288.5 93h-340q-18 0 -28.5 13t-10.5 30v534q0 27 27 27h643q27 0 26 -27v-33q0 -27 -26 -26 h-584v-432h293q236 0 357.5 -111t121.5 -315q0 -96 -36 -182.5t-99.5 -151t-152.5 -101t-193 -36.5q-86 0 -151.5 18t-114 45t-81.5 56.5t-51 52.5q-12 16 -13 24z" />
<glyph unicode="6" horiz-adv-x="1134" d="M119 563q0 139 37 254t96 206t134 161.5t148.5 122t141 84t112.5 51.5q25 6 31 -15l15 -30q10 -27 -23 -39q-45 -16 -132 -62.5t-179 -125t-170 -187.5t-103 -250q12 16 44 44t81 55.5t114.5 47t143.5 19.5q88 0 168 -31.5t141.5 -90t98.5 -141.5t37 -185 q0 -98 -37 -183.5t-99.5 -150t-145.5 -101t-175 -36.5q-121 0 -210 45t-149.5 123.5t-90 185t-29.5 229.5zM207 549q0 -94 24.5 -182t72.5 -156t122 -109t172 -41q76 0 142.5 31t116.5 83t79 123t29 148q0 82 -30 150t-79 117t-114.5 75.5t-139.5 26.5q-92 0 -163.5 -30.5 t-122 -68.5t-77 -71t-28.5 -35q-2 -16 -3 -30.5t-1 -30.5z" />
<glyph unicode="7" horiz-adv-x="968" d="M41 1337v31q0 27 27 27h847q14 0 21.5 -7.5t7.5 -17.5v-10l-602 -1327q-10 -20 -16.5 -26.5t-22.5 -6.5h-49q-16 0 -17 11.5t3 21.5l583 1276h-755q-16 0 -21.5 8t-5.5 20z" />
<glyph unicode="8" horiz-adv-x="1175" d="M129 367q0 68 25.5 124t67.5 101t97.5 75.5t116.5 45.5v4q-53 14 -102 44t-86 71.5t-59.5 94t-22.5 113.5q0 76 26.5 143.5t80 118t131 80t180.5 29.5q102 0 182 -29.5t134 -80t82 -118t28 -143.5q0 -61 -22.5 -113.5t-59.5 -94t-86 -71.5t-103 -44v-4q61 -14 116.5 -44 t97.5 -74t68 -101.5t26 -126.5q0 -92 -34 -164t-95.5 -121t-146.5 -75.5t-187 -26.5q-100 0 -184.5 26.5t-143.5 75.5t-93 121t-34 164zM223 358q0 -74 29 -130t78 -94t114.5 -57.5t139.5 -19.5q78 0 145.5 18.5t116.5 56.5t77.5 94.5t28.5 131.5q0 57 -25.5 109.5 t-72.5 93.5t-114.5 67.5t-151.5 33.5q-172 -14 -268.5 -98.5t-96.5 -205.5zM258 1038q0 -119 88 -192.5t242 -83.5q154 10 242 84t88 192q0 59 -22 112.5t-65 94.5t-105 64.5t-144 23.5q-80 0 -140.5 -23.5t-101.5 -64.5t-61.5 -94t-20.5 -113z" />
<glyph unicode="9" horiz-adv-x="1132" d="M80 954q0 98 37 183.5t99.5 150t145 101t175.5 36.5q119 0 209 -45t149 -123.5t90 -185t31 -229.5q0 -139 -37 -254t-96.5 -206t-134 -161.5t-149.5 -122t-142.5 -85t-112.5 -50.5q-20 -6 -31 14l-12 31q-10 29 23 39q29 10 79 34.5t109 62.5t121.5 90.5t118 118 t96.5 145.5t57 174q-12 -16 -44 -44t-81 -55.5t-113.5 -47t-142.5 -19.5q-88 0 -168 31.5t-141 90t-98 141.5t-37 185zM170 958q0 -82 28.5 -149.5t78 -116.5t114.5 -75.5t139 -26.5q92 0 165 30.5t122 68.5t76 70t29 36q2 16 3 30.5t1 30.5q0 94 -23.5 182t-73 156 t-122 108.5t-170.5 40.5q-76 0 -142.5 -30.5t-117 -82.5t-79 -123t-28.5 -149z" />
<glyph unicode=":" horiz-adv-x="538" d="M186 61q0 35 25 58.5t59 23.5q35 0 58.5 -23.5t23.5 -58.5t-23.5 -58t-58.5 -23t-59.5 23t-24.5 58zM186 756q0 35 25 59.5t59 24.5q35 0 58.5 -24.5t23.5 -59.5q0 -33 -23.5 -57.5t-58.5 -24.5t-59.5 24.5t-24.5 57.5z" />
<glyph unicode=";" horiz-adv-x="546" d="M186 61q0 37 23.5 58.5t62.5 21.5q45 0 80 -45t35 -147q0 -61 -17.5 -110.5t-42 -85.5t-49 -58.5t-38.5 -30.5q-25 -14 -35 0l-17 21q-14 16 9 32q4 2 20 15.5t35.5 38t37 59.5t21.5 82q2 45 -10 78q-16 -10 -33 -10q-41 0 -61.5 24t-20.5 57zM186 756q0 35 23.5 59.5 t58.5 24.5t58.5 -24.5t23.5 -59.5q0 -33 -23.5 -57.5t-58.5 -24.5t-58.5 24.5t-23.5 57.5z" />
<glyph unicode="&#x3c;" horiz-adv-x="886" d="M53 473v2q0 16 21 29l723 459q10 8 19 1.5t9 -22.5v-47q0 -6 -3 -15.5t-13 -15.5l-623 -391l623 -379q10 -6 13 -15t3 -16v-47q0 -16 -9 -22t-19 2l-723 444q-20 12 -21 33z" />
<glyph unicode="=" horiz-adv-x="1148" d="M225 350v35q0 10 5.5 18.5t21.5 8.5h645q27 0 27 -27v-35q0 -27 -27 -26h-645q-16 0 -21.5 8t-5.5 18zM225 776v35q0 10 5.5 18.5t21.5 8.5h645q27 0 27 -27v-35q0 -27 -27 -26h-645q-16 0 -21.5 8t-5.5 18z" />
<glyph unicode="&#x3e;" horiz-adv-x="886" d="M61 16v47q0 6 3.5 15.5t13.5 15.5l622 379l-622 391q-10 6 -13.5 15.5t-3.5 15.5v47q0 16 9.5 22.5t19.5 -1.5l723 -459q20 -12 21 -29v-2q0 -20 -21 -33l-723 -444q-10 -8 -19.5 -2t-9.5 22z" />
<glyph unicode="?" horiz-adv-x="960" d="M117 1260.5q2 9.5 8 19.5q35 49 88 86q45 33 112.5 60.5t161.5 27.5q156 0 247 -81t91 -208q0 -68 -25.5 -118t-63.5 -88.5t-83 -69.5t-83 -59.5t-63.5 -58.5t-25.5 -66v-117q0 -29 -26 -29h-39q-14 0 -19.5 9.5t-5.5 19.5v119q0 49 25.5 88t63.5 71.5t82 63.5t82 64.5 t63.5 73.5t25.5 91q0 39 -16.5 78t-49 68.5t-78.5 48t-108 18.5q-72 0 -123 -19.5t-86.5 -44t-56 -48t-29.5 -31.5q-6 -6 -13 -9t-21 7l-21 14q-16 10 -14 19.5zM352 61q0 35 23.5 58.5t58.5 23.5t59.5 -23.5t24.5 -58.5t-24.5 -58t-59.5 -23t-58.5 23t-23.5 58z" />
<glyph unicode="@" horiz-adv-x="2027" d="M98 459q0 217 66.5 400t189.5 315.5t297 206t389 73.5q205 0 366 -65.5t271.5 -180t169 -273.5t58.5 -343q0 -102 -19.5 -210t-66.5 -198t-129 -147t-205 -57q-102 0 -157.5 47t-72.5 114q-12 -20 -36.5 -47.5t-61.5 -53.5t-85 -43t-109 -17q-84 0 -153 31.5t-120 90 t-78.5 137t-27.5 175.5q0 96 31.5 175t87 134t128 86t154.5 31q61 0 108.5 -14.5t80.5 -30.5q37 -20 63 -45l6 45q2 25 29 24h20q27 0 27 -26v-514q0 -117 44 -170.5t126 -53.5q86 0 148.5 43t104.5 117t61.5 171t19.5 206q0 168 -51.5 312.5t-150.5 250t-245.5 164.5 t-337.5 59q-197 0 -355.5 -65.5t-270 -186t-172 -290.5t-60.5 -377q0 -154 42 -284t118 -236.5t181.5 -188.5t230.5 -135q23 -10 12 -33l-14 -33q-8 -20 -29 -12q-135 57 -250 146.5t-198 206t-129 260t-46 309.5zM672 414q0 -78 22.5 -142.5t61.5 -110.5t93 -70.5 t120 -24.5q68 0 116 23.5t79.5 55t48 62.5t20.5 47v387q-2 2 -17.5 21.5t-46 40t-75.5 38t-105 17.5q-66 0 -123 -24.5t-100 -70t-68.5 -108.5t-25.5 -141z" />
<glyph unicode="A" horiz-adv-x="1337" d="M12 25l631 1425q6 14 25 14h6q18 0 26 -14l625 -1425q2 -6 2 -11q0 -4 -1 -6q-3 -8 -19 -8h-54q-10 0 -17 6t-11 12l-166 377h-783l-163 -377q-4 -6 -11.5 -12t-17.5 -6h-57q-18 0 -18 13q0 5 3 12zM313 475h711l-350 825h-4z" />
<glyph unicode="B" horiz-adv-x="1275" d="M217 27v1380q0 27 27 27h436q94 0 172 -27t134 -75t87 -116.5t31 -152.5q0 -123 -64.5 -208t-160.5 -124q55 -14 104 -41.5t86 -69.5t58.5 -99.5t21.5 -131.5q0 -86 -33 -157.5t-92 -123t-142 -80t-184 -28.5h-454q-27 0 -27 27zM311 86h396q74 0 136 22.5t107 63.5 t69.5 96.5t24.5 122.5q0 68 -27.5 122t-74.5 92t-110.5 57.5t-137.5 19.5h-383v-596zM313 770h381q145 0 225 81t80 208q0 135 -86 209.5t-233 74.5h-367v-573z" />
<glyph unicode="C" horiz-adv-x="1470" d="M115 715q0 154 58 289t158.5 234t235.5 157.5t289 58.5q158 0 277.5 -49t220.5 -141q9 -9 9 -21q0 -9 -7 -16l-33 -35q-16 -16 -35 2q-88 78 -196.5 123t-235.5 45q-135 0 -252 -51t-203 -139.5t-135 -206t-49 -250.5t49 -250t135 -204t203 -138t252 -51q133 0 236.5 47 t195.5 125q18 14 33 4l35 -35q9 -8 9 -16.5t-9 -18.5q-104 -102 -233.5 -150t-266.5 -48q-154 0 -289 57t-235.5 156.5t-158.5 233.5t-58 288z" />
<glyph unicode="D" horiz-adv-x="1511" d="M217 27v1380q0 10 7 18.5t18 8.5h434q150 0 280.5 -56.5t229 -154t155 -227.5t56.5 -277q0 -150 -56.5 -281t-155 -228t-229.5 -153.5t-280 -56.5h-434q-10 0 -17.5 8t-7.5 19zM313 88h346q135 0 251 48t201 133t134 200t49 250q0 133 -49 247.5t-134 198.5t-200.5 132.5 t-251.5 48.5h-346v-1258z" />
<glyph unicode="E" horiz-adv-x="1224" d="M217 27v1380q0 27 27 27h821q27 0 27 -27v-35q0 -27 -27 -26h-750v-566h650q27 0 26 -26v-35q0 -27 -26 -27h-650v-606h750q27 0 27 -27v-32q0 -27 -27 -27h-821q-27 0 -27 27z" />
<glyph unicode="F" horiz-adv-x="1173" d="M217 27v1380q0 27 27 27h821q27 0 27 -27v-35q0 -27 -27 -26h-750v-623h650q27 0 26 -27q0 -16 -2 -37.5t-24 -21.5h-650l-2 -610q0 -27 -32 -27h-37q-27 0 -27 27z" />
<glyph unicode="G" horiz-adv-x="1521" d="M115 715q0 154 58 289t158.5 234t235.5 157.5t289 58.5q156 0 275.5 -49t220.5 -141q8 -8 9 -18.5t-7 -18.5q-8 -10 -16.5 -18.5l-16.5 -16.5q-16 -18 -35 0q-86 80 -195.5 126t-236.5 46q-133 0 -250 -51t-203 -138.5t-135 -205t-49 -250.5t49 -251t135 -205t203 -138 t250 -51q94 0 169 15t130 34.5t87 38t40 24.5v385h-350q-16 0 -21.5 6.5t-5.5 20.5v41q0 12 5 18.5t22 6.5h420q10 0 18 -7.5t8 -17.5v-475q0 -23 -8 -33t-20 -20q-14 -10 -55.5 -32t-105 -43.5t-147.5 -38.5t-184 -17q-154 0 -289 57t-235.5 156.5t-158.5 233.5t-58 288z " />
<glyph unicode="H" horiz-adv-x="1546" d="M217 27v1380q0 27 27 27h43q27 0 26 -27v-629h920v629q0 27 27 27h43q27 0 26 -27v-1380q0 -27 -26 -27h-43q-27 0 -27 27v665h-920v-665q0 -27 -26 -27h-43q-27 0 -27 27z" />
<glyph unicode="I" horiz-adv-x="532" d="M217 27v1380q0 27 27 27h45q27 0 26 -27v-1380q0 -12 -9 -19.5t-19 -7.5h-43q-27 0 -27 27z" />
<glyph unicode="J" horiz-adv-x="800" d="M-51 133q-6 9 -6 17q0 10 8 18l26 25q8 8 16.5 9t18.5 -9l39 -39t53.5 -42.5t69.5 -32.5t90 -13q131 0 215 90t84 274v977q0 27 29 27h41q27 0 26 -27v-975q0 -217 -106.5 -334.5t-290.5 -117.5q-68 0 -120 18t-91 43t-64.5 50.5t-37.5 41.5z" />
<glyph unicode="K" horiz-adv-x="1208" d="M217 27v1376q0 31 31 31h37q31 0 30 -31v-633l697 649q12 10 19 12.5t22 2.5h57q16 0 19.5 -12.5t-7.5 -22.5l-712 -662l735 -702q7 -6 7 -14q0 -3 -1 -7q-4 -14 -25 -14h-65q-14 0 -23.5 4t-21.5 16l-701 680v-673q0 -16 -9 -21.5t-21 -5.5h-41q-27 0 -27 27z" />
<glyph unicode="L" horiz-adv-x="1001" d="M217 27v1380q0 27 27 27h45q10 0 17 -8.5t7 -18.5v-1321h654q18 0 22 -8t4 -19v-36q0 -23 -26 -23h-723q-27 0 -27 27z" />
<glyph unicode="M" horiz-adv-x="1759" d="M102 27l291 1413q4 14 19 14h22q14 0 21 -14l422 -1258h4l424 1258q6 14 20 14h23q14 0 18 -14l291 -1413q1 -5 1 -8q0 -19 -24 -19h-49q-20 0 -24 23l-232 1200h-4l-414 -1227q-6 -16 -28 -16h-9q-8 0 -15 3t-11 13l-414 1227h-4l-231 -1200q-4 -23 -25 -23h-49 q-24 0 -24 19q0 3 1 8z" />
<glyph unicode="N" horiz-adv-x="1579" d="M217 27v1400q0 12 9.5 19.5t21.5 7.5h35l983 -1280h2v1233q0 27 26 27h41q27 0 27 -27v-1401q0 -14 -10.5 -20t-22.5 -6h-26l-7 6q-6 6 -35.5 43t-90 114.5t-170 221t-277.5 364.5t-412 543h-2v-1245q0 -27 -26 -27h-39q-27 0 -27 27z" />
<glyph unicode="O" horiz-adv-x="1705" d="M115 715q0 154 57 289t157.5 234t234.5 157.5t288 58.5t289 -58.5t235.5 -157.5t157.5 -234.5t57 -288.5q0 -154 -57 -288t-157.5 -233.5t-235.5 -156.5t-289 -57t-288 57t-234.5 156.5t-157.5 233.5t-57 288zM205 715q0 -135 51 -252t138 -205t205 -138t253 -50t253 50 t206 138t139 205t51 252t-51 252.5t-139 206t-206 139.5t-253 51t-253 -51t-205 -139.5t-138 -206t-51 -252.5z" />
<glyph unicode="P" horiz-adv-x="1216" d="M217 27v1380q0 27 27 27h440q94 0 179 -36t147.5 -98.5t99.5 -146.5t37 -178q0 -96 -37 -181t-99.5 -147.5t-146.5 -99.5t-178 -37h-373v-483q0 -27 -32 -27h-37q-27 0 -27 27zM313 604h367q76 0 142.5 29t117.5 80t81 118.5t30 145.5q0 76 -30 141.5t-81 114.5 t-118.5 76.5t-143.5 27.5h-365v-733z" />
<glyph unicode="Q" horiz-adv-x="1708" d="M115 715q0 154 57 289t157.5 234t234.5 157.5t288 58.5t289 -58.5t235.5 -157.5t157.5 -234.5t57 -288.5q0 -117 -33.5 -223.5t-94 -194.5t-145.5 -155.5t-188 -108.5l244 -398q4 -8 1 -19t-15 -11h-68q-14 0 -26 20l-228 377q-86 -22 -178 -22h-8q-154 0 -288 57 t-234.5 156.5t-157.5 233.5t-57 288zM205 715q0 -135 51 -252t138 -205t205 -138t253 -50t253 50t206 138t139 205t51 252t-51 252.5t-139 206t-206 139.5t-253 51t-253 -51t-205 -139.5t-138 -206t-51 -252.5z" />
<glyph unicode="R" horiz-adv-x="1331" d="M217 27v1380q0 27 27 27h508q94 0 177 -34t145.5 -92.5t98 -138t35.5 -174.5q0 -78 -25.5 -146.5t-70.5 -123.5t-106.5 -96t-135.5 -62l299 -530q8 -12 5 -24.5t-19 -12.5h-63q-20 0 -29 18l-297 537q-20 -2 -37.5 -2h-38.5h-377v-526q0 -27 -32 -27h-37q-27 0 -27 27z M315 639h433q74 0 139 27.5t115.5 74.5t79 113t28.5 141q0 74 -28.5 136.5t-79 108.5t-117 72.5t-140.5 26.5h-430v-700z" />
<glyph unicode="S" horiz-adv-x="1112" d="M123 164q-1 2 -1 6q0 8 9 20l19 25q25 27 45 8q8 -6 38.5 -31.5t81 -53t116 -50t142.5 -22.5q70 0 132.5 21.5t109.5 59t75 88t28 105.5q0 68 -28 119t-79 92t-125 73.5t-166 63.5q-90 31 -162.5 64.5t-124 80t-80 109t-28.5 150.5q0 57 24.5 120.5t77 117.5t136 89 t204.5 35q76 0 140.5 -16.5t111.5 -36.5q55 -23 101 -51q6 -4 12 -15.5t-4 -27.5q-10 -12 -17 -27q-18 -27 -45 -10q-2 2 -27.5 17.5t-66.5 32.5t-94 31.5t-113 14.5q-94 0 -159.5 -26.5t-107.5 -66.5t-60.5 -88t-18.5 -91q0 -66 23.5 -114t68.5 -85t107.5 -65.5 t140.5 -53.5q104 -37 189.5 -74.5t145.5 -88t92 -116t32 -153.5q0 -78 -37 -144.5t-98.5 -115.5t-142.5 -76.5t-169 -27.5q-92 0 -166.5 22.5t-131 52t-91.5 56t-45 36.5q-10 7 -14 17z" />
<glyph unicode="T" horiz-adv-x="966" d="M16 1376v31q0 27 27 27h881q27 0 26 -27v-35q0 -27 -26 -26h-394v-1319q0 -27 -32 -27h-37q-27 0 -27 27v1319h-391q-27 0 -27 30z" />
<glyph unicode="U" horiz-adv-x="1474" d="M201 522v885q0 27 26 27h43q27 0 27 -27v-875q0 -98 29.5 -182t87 -145.5t138.5 -96t183 -34.5t184 33.5t139.5 95t88.5 145.5t31 182v877q0 27 28 27h41q27 0 27 -27v-885q0 -117 -38 -217t-108.5 -172t-170 -112.5t-222.5 -40.5q-121 0 -220 40.5t-169 112.5 t-107.5 172.5t-37.5 216.5z" />
<glyph unicode="V" horiz-adv-x="1333" d="M12 1407q-4 8 -4 14q0 13 21 13h55q18 0 22 -15l553 -1272h5l559 1272q4 14 22 15h53q23 0 23 -14q0 -6 -4 -15l-629 -1407q-8 -18 -24 -18h-11q-10 0 -15 7t-7 11z" />
<glyph unicode="W" horiz-adv-x="1835" d="M80 1407q-1 5 -1 9q0 18 23 18h50q20 0 24 -23l344 -1200h4l361 1225q4 10 12 14t18 4h5q10 0 18 -4t12 -14l363 -1225h4l342 1200q4 23 24 23h50q23 0 23 -18q0 -4 -1 -9l-405 -1413q-4 -14 -19 -14h-22q-14 0 -21 14l-368 1247h-5l-368 -1247q-6 -14 -21 -14h-22 q-14 0 -19 14z" />
<glyph unicode="X" horiz-adv-x="1157" d="M68 9q-2 3 -2 6q0 7 6 16l444 702l-420 670q-8 12 -4 21.5t21 9.5h65q16 0 27 -13l370 -602h3l374 602q8 12 27 13h65q16 0 20.5 -9.5t-3.5 -21.5l-422 -670l448 -702q5 -8 5 -15q0 -2 -1 -6q-4 -10 -20 -10h-65q-18 0 -27 12l-401 633h-3l-395 -633q-10 -12 -26 -12h-66 q-16 0 -20 9z" />
<glyph unicode="Y" horiz-adv-x="1146" d="M-9 1424q5 10 21 10h62q16 0 26 -13l467 -637l475 637q8 12 27 13h61q16 0 22 -10q1 -3 1 -7q0 -6 -6 -14l-533 -705v-671q0 -27 -26 -27q-20 0 -45 1t-25 26v669l-522 707q-7 8 -7 15q0 3 2 6z" />
<glyph unicode="Z" horiz-adv-x="1091" d="M61 25v36l832 1278v4h-741q-27 0 -27 31v33q0 27 27 27h843q27 0 27 -27v-33l-834 -1282v-2h764q27 0 27 -27v-36q0 -27 -27 -27h-862q-29 0 -29 25z" />
<glyph unicode="[" horiz-adv-x="675" d="M170 -590v1997q0 27 27 27h399q27 0 27 -27v-31q0 -27 -27 -26h-338v-1882h338q27 0 27 -27v-31q0 -27 -27 -26h-399q-27 0 -27 26z" />
<glyph unicode="\" horiz-adv-x="669" d="M53 1405q-4 12 3 20.5t22 8.5h28q20 0 27 -17l453 -1388q4 -14 -3.5 -21.5t-19.5 -7.5h-31q-20 0 -26 18z" />
<glyph unicode="]" horiz-adv-x="673" d="M53 -559q0 27 27 27h336v1882h-336q-27 0 -27 26v31q0 27 27 27h397q27 0 27 -27v-1997q0 -27 -27 -26h-397q-27 0 -27 26v31z" />
<glyph unicode="^" horiz-adv-x="1073" d="M75 829.5q-3 10.5 7 22.5l432 596q10 14 23 14h6q12 0 22 -14l430 -596q10 -12 7 -22.5t-19 -10.5h-47q-20 0 -33 17l-364 505l-365 -505q-12 -16 -33 -17h-47q-16 0 -19 10.5z" />
<glyph unicode="_" horiz-adv-x="804" d="M53 -47q0 27 27 27h645q27 0 27 -27v-21q0 -25 -27 -24h-645q-27 0 -27 24v21z" />
<glyph unicode="`" horiz-adv-x="618" d="M147 1337l21 41q6 10 17.5 10.5t17.5 -4.5l336 -184q18 -10 12 -29l-10 -20q-8 -16 -33 -6l-352 162q-18 10 -9 30z" />
<glyph unicode="a" horiz-adv-x="874" d="M90 252q0 119 91 197.5t253 78.5q35 0 69 -5t61.5 -11t48 -12t28.5 -8q0 68 -5 117.5t-23.5 83.5t-54.5 51.5t-97 17.5q-51 0 -93 -8.5t-74 -17.5t-52.5 -18t-26.5 -11q-23 -8 -31 16l-10 25q-8 23 12 30q2 2 22.5 11.5t56.5 20.5t87 20.5t115 9.5q94 0 146.5 -27t78 -75 t30.5 -113.5t5 -143.5v-454q0 -27 -27 -27h-24q-18 0 -25 23l-8 73q-41 -37 -113.5 -76.5t-171.5 -39.5q-115 0 -191.5 72.5t-76.5 199.5zM174 254q0 -90 54.5 -142.5t140.5 -52.5q47 0 90 12.5t78.5 32t62.5 42t41 40.5v226q-20 10 -76.5 26.5t-130.5 16.5 q-117 0 -188.5 -54.5t-71.5 -146.5z" />
<glyph unicode="b" d="M156 27v1380q0 27 26 27h35q27 0 27 -27v-649q29 23 67 41q33 16 80 28.5t107 12.5q86 0 159.5 -33t128 -90.5t84 -136t29.5 -168.5t-29.5 -169t-80 -137.5t-119 -92t-148.5 -33.5q-59 0 -107 14t-85 34.5t-60.5 41t-31.5 30.5l-7 -73q-2 -27 -28 -27h-21q-27 0 -26 27z M246 207q2 -4 19.5 -26.5t50 -49.5t83 -48.5t115.5 -21.5q63 0 118.5 28t94.5 75t61.5 110.5t22.5 135.5q0 74 -24.5 136t-67.5 108t-102.5 72t-129.5 26q-55 0 -100 -13.5t-76 -29.5q-37 -20 -65 -43v-459z" />
<glyph unicode="c" horiz-adv-x="940" d="M94 410q0 92 35 170.5t93.5 136t137 90.5t164.5 33q59 0 109.5 -13.5t88.5 -34t64.5 -42t40.5 -39.5q16 -20 -4 -37l-20 -21q-10 -10 -21.5 -8t-21.5 12q-8 8 -27.5 24.5t-49.5 32t-70 27t-89 11.5q-70 0 -131 -26t-107 -72t-73 -107.5t-27 -134.5q0 -74 27 -137.5 t73 -109.5t107.5 -72.5t128.5 -26.5q57 0 101.5 15t76 35.5t51 40t27.5 29.5q20 23 39 4l23 -20q10 -10 10 -20q0 -6 -4 -13q-12 -18 -40 -44.5t-69 -52.5t-95 -43t-118 -17q-86 0 -164.5 32.5t-137 90t-93.5 136.5t-35 171z" />
<glyph unicode="d" d="M96 410q0 90 30 168.5t84 137t128 91.5t162 33q59 0 105 -12.5t79 -28.5q37 -18 68 -41v649q0 27 26 27h37q10 0 17.5 -8.5t7.5 -18.5v-1380q0 -27 -27 -27h-20q-27 0 -29 27l-6 71q-10 -10 -33 -29.5t-58.5 -40t-83.5 -34.5t-108 -14q-80 0 -149.5 33.5t-119.5 92 t-80 136.5t-30 168zM186 410q0 -72 21.5 -135.5t61.5 -110.5t93.5 -75t118.5 -28q68 0 117 21.5t83 48.5t51.5 49.5t19.5 26.5v459q-29 23 -66 43q-33 16 -78 29.5t-100 13.5q-72 0 -130.5 -26t-101.5 -72t-66.5 -108t-23.5 -136z" />
<glyph unicode="e" horiz-adv-x="956" d="M96 412q0 88 28 165.5t80 136t127 92.5t169 34q80 0 148.5 -28t117.5 -78t76.5 -118.5t27.5 -150.5q0 -25 -4 -52.5t-26 -27.5h-654q2 -66 27 -125t67 -103t99 -70t127 -26q82 0 143.5 26t98.5 50q14 10 21 10t15 -10l21 -28q10 -14 -8 -33q-16 -16 -46 -32.5t-70 -31 t-87 -23.5t-94 -9q-94 0 -169 33.5t-127 92t-80 137.5t-28 169zM188 459h592q0 59 -18.5 113.5t-53 95.5t-87 65.5t-121.5 24.5q-68 0 -123 -23.5t-96 -63.5t-64.5 -94.5t-28.5 -117.5z" />
<glyph unicode="f" horiz-adv-x="641" d="M57 766v27q0 27 27 26h123v281q0 90 23.5 156.5t64.5 110.5t97.5 65.5t123.5 21.5q39 0 76 -8t66.5 -21.5t52 -29t34.5 -29.5q9 -11 9 -21q0 -6 -4 -12l-21 -28q-14 -23 -35 -2q-23 23 -72 46t-106 23q-98 0 -158.5 -65.5t-60.5 -206.5v-281h303q27 0 27 -24v-31 q0 -25 -27 -25h-303v-712q0 -27 -27 -27h-37q-27 0 -26 27v712h-123q-14 0 -20.5 8.5t-6.5 18.5z" />
<glyph unicode="g" horiz-adv-x="946" d="M72 70q0 51 18.5 90t41 66.5t45 43t30.5 19.5q-16 23 -40 77t-24 128t25 137t72 109t112.5 73t149.5 27h336q27 0 26 -27v-22q0 -8 -4 -15.5t-14 -9.5l-148 -10q14 -8 36 -25.5t42.5 -49.5t34.5 -78t14 -109q0 -68 -23.5 -130.5t-67.5 -108.5t-107.5 -73.5t-141.5 -27.5 q-92 0 -147 25.5t-76 47.5q-6 -2 -23.5 -12t-35 -27.5t-31.5 -44t-14 -63.5t14 -59.5t36.5 -36t51.5 -18.5t59 -5h297q66 0 122.5 -15.5t96 -47t62.5 -81.5t23 -118q0 -66 -30 -126t-85 -106.5t-132 -74t-171 -27.5q-104 0 -180 27.5t-124 71.5t-72 97.5t-24 106.5 q0 45 14.5 81t34 62.5t42 44t38.5 27.5q-16 2 -42.5 14.5t-52 36t-45 56.5t-19.5 80zM193 -322q0 -43 20 -83.5t59 -72.5t96.5 -52.5t131.5 -20.5q70 0 129 19.5t103 52.5t68.5 78t24.5 98q0 35 -11 67.5t-35.5 57t-64.5 40t-98 15.5h-258q-8 0 -34.5 -12t-56 -36t-52 -62 t-22.5 -89zM227 496q0 -53 16.5 -101.5t49.5 -84.5t80.5 -56.5t113.5 -20.5q57 0 104.5 20.5t80.5 56.5t50 83t17 103q0 63 -20.5 112t-55 83t-79.5 50.5t-97 16.5q-59 0 -107 -20.5t-82 -55.5t-52.5 -83t-18.5 -103z" />
<glyph unicode="h" horiz-adv-x="1013" d="M156 27v1380q0 27 28 27h33q27 0 27 -27v-698q10 10 34.5 31.5t62.5 44t88 39t112 16.5q160 0 244.5 -95.5t84.5 -279.5v-438q0 -27 -26 -27h-37q-27 0 -27 27v438q0 141 -63.5 214t-179.5 73q-63 0 -115.5 -20.5t-91.5 -47.5t-61.5 -49.5t-24.5 -26.5v-581 q0 -27 -27 -27h-39q-23 0 -22 27z" />
<glyph unicode="i" horiz-adv-x="401" d="M131 1288q0 29 20.5 50.5t49.5 21.5t49 -21.5t20 -50.5t-20 -48t-49 -19t-49.5 19.5t-20.5 47.5zM156 27v766q0 26 24 26h2h37q27 0 27 -26v-766q0 -27 -27 -27h-41q-23 0 -22 27z" />
<glyph unicode="j" horiz-adv-x="399" d="M-289 -518l21 33q14 20 35 0q27 -20 72.5 -44t105.5 -24q98 0 154.5 64.5t56.5 207.5v1074q0 27 26 26h35q27 0 27 -26v-1074q0 -182 -82 -268t-217 -86q-80 0 -141.5 31t-88.5 57q-8 8 -8 17q0 6 4 12zM129 1288q0 29 20.5 50.5t49.5 21.5t49 -21.5t20 -50.5t-20 -48 t-49 -19t-49.5 19.5t-20.5 47.5z" />
<glyph unicode="k" horiz-adv-x="876" d="M156 27v1380q0 27 26 27h35q27 0 27 -27v-918l436 318q14 12 33 12h59q16 0 17.5 -14t-11.5 -23l-440 -323l493 -424q9 -7 9 -16q0 -3 -2 -7q-4 -12 -17 -12h-63q-10 0 -18.5 3t-22.5 13l-473 408v-397q0 -27 -27 -27h-39q-23 0 -22 27z" />
<glyph unicode="l" horiz-adv-x="401" d="M156 27v1380q0 27 26 27h37q27 0 27 -27v-1380q0 -27 -27 -27h-41q-23 0 -22 27z" />
<glyph unicode="m" horiz-adv-x="1562" d="M156 27v766q0 27 26 26h25q18 0 22 -20l11 -88q8 12 29.5 33.5t57 43t85 37t110.5 15.5q94 0 162 -39t107 -111q8 12 33.5 37t65.5 50.5t92 44t116 18.5q168 0 243.5 -100.5t75.5 -274.5v-438q0 -27 -26 -27h-41q-23 0 -23 27v438q0 287 -235 287q-57 0 -103.5 -17.5 t-80.5 -40t-55.5 -46t-31.5 -36.5q18 -66 19 -147v-438q0 -27 -27 -27h-39q-25 0 -24 27v438q0 141 -60.5 214t-177.5 73q-61 0 -109.5 -19.5t-82 -45t-52 -48.5t-22.5 -29v-583q0 -27 -27 -27h-41q-23 0 -22 27z" />
<glyph unicode="n" horiz-adv-x="1013" d="M156 27v766q0 27 28 26h21q20 0 24 -20l9 -88q10 10 35.5 31.5t64.5 43t90 38t113 16.5q172 0 250.5 -101.5t78.5 -273.5v-438q0 -27 -26 -27h-37q-27 0 -27 27v438q0 141 -63.5 214t-179.5 73q-63 0 -115.5 -20.5t-91.5 -46.5t-61.5 -48.5t-24.5 -26.5v-583 q0 -27 -27 -27h-39q-23 0 -22 27z" />
<glyph unicode="o" horiz-adv-x="1011" d="M94 412q0 88 32 165.5t87 136t131 92.5t162 34t160.5 -34t131 -92.5t88.5 -136t32 -165.5q0 -90 -32 -169t-88.5 -137.5t-131 -92t-160.5 -33.5t-162 33.5t-131 92t-87 137.5t-32 169zM182 412q0 -74 24.5 -137.5t68.5 -110.5t103.5 -74t127.5 -27t126 27t102 74 t68.5 110.5t24.5 137.5q0 70 -24.5 132t-68.5 109t-102.5 74t-125.5 27q-68 0 -127.5 -27t-103.5 -74t-68.5 -109t-24.5 -132z" />
<glyph unicode="p" horiz-adv-x="997" d="M156 -588v1381q0 12 9 19t19 7h23q23 0 24 -20l7 -58q8 8 30.5 24.5t56 33t80 29t101.5 12.5q86 0 157.5 -34t125 -92.5t83 -136t29.5 -167.5t-30.5 -169t-86 -137.5t-131 -91t-166.5 -32.5q-51 0 -92 10t-71.5 23.5t-51 27.5t-28.5 22v-651q0 -26 -25 -26h-2h-35 q-27 0 -26 26zM246 162q2 -4 18.5 -19.5t46 -32t71.5 -30.5t95 -14q74 0 135.5 26.5t105.5 73.5t68.5 109.5t24.5 136.5q0 72 -22.5 134t-63.5 109t-98.5 74t-126.5 27q-59 0 -105.5 -16.5t-79 -37t-50 -39t-19.5 -22.5v-479z" />
<glyph unicode="q" d="M96 410q0 90 30 167.5t82 136t123.5 92.5t157.5 34q55 0 101.5 -12.5t80.5 -29t55.5 -32.5t31.5 -25l8 56q2 23 27 22h22q10 0 17.5 -8t7.5 -18v-1381q0 -10 -7.5 -18t-17.5 -8h-37q-27 0 -26 26v654q-8 -8 -27.5 -22.5t-50.5 -29t-72 -24.5t-92 -10q-92 0 -168 32.5 t-130 91t-85 137.5t-31 169zM186 412q0 -74 23.5 -136.5t68 -109.5t105.5 -73.5t135 -26.5q51 0 93 13t73 29.5t47.5 32t20.5 19.5v481q-2 2 -19.5 20.5t-50.5 40t-79 38t-105 16.5q-72 0 -129.5 -27t-97.5 -74t-62.5 -109t-22.5 -134z" />
<glyph unicode="r" horiz-adv-x="663" d="M156 27v766q0 27 26 26h25q20 0 24 -22l9 -84q8 10 27.5 31.5t51 43t75.5 37t102 15.5q49 0 81.5 -10.5t45.5 -14.5q25 -8 25 -25q0 -6 -3 -12l-16 -41q-8 -20 -33 -10q-8 4 -37 14.5t-70 10.5q-59 0 -104 -20.5t-74.5 -46.5t-46 -48.5t-18.5 -26.5v-583q0 -27 -27 -27 h-41q-23 0 -22 27z" />
<glyph unicode="s" horiz-adv-x="757" d="M100 627q0 33 15.5 70.5t48.5 69.5t83 52.5t122 20.5q82 0 141 -22.5t90 -43.5q23 -14 8 -39l-12 -22q-14 -25 -39 -11q-6 4 -24.5 14.5t-44 19.5t-56.5 16.5t-63 7.5q-49 0 -82 -12.5t-54.5 -32t-30.5 -43t-9 -43.5q0 -61 51 -96t143 -68q57 -23 109.5 -44.5t92.5 -50 t63.5 -68.5t23.5 -95q0 -47 -22.5 -88t-61.5 -72t-92.5 -49t-114.5 -18q-104 0 -168.5 32.5t-99.5 59.5q-6 4 -9.5 12t1.5 16l20 33q4 8 15.5 10t21.5 -8q8 -6 26.5 -19.5t47 -26.5t65.5 -23.5t80 -10.5q88 0 142.5 43t54.5 103q0 35 -16.5 61.5t-47.5 47t-73 39t-93 36.5 q-55 18 -101 41t-80 51.5t-52.5 65.5t-18.5 84z" />
<glyph unicode="t" horiz-adv-x="673" d="M70 766v33q0 20 24 20h96v223q0 27 27 27l35 2q27 0 27 -27v-225h284q27 0 27 -26v-27q0 -27 -27 -27h-284v-522q0 -72 17 -110.5t89 -38.5q27 0 55.5 6t54 15t46 18.5t30.5 15.5q14 8 21.5 4t11.5 -12l14 -25q5 -9 5 -17q0 -11 -11 -18q-23 -18 -86 -46.5t-151 -28.5 q-63 0 -100 17t-55.5 49t-24 74t-5.5 91v528h-96q-16 0 -20 7.5t-4 19.5z" />
<glyph unicode="u" horiz-adv-x="993" d="M143 352v441q0 26 25 26h2h37q27 0 26 -26v-441q0 -143 63.5 -214.5t180.5 -71.5q63 0 112.5 20t84.5 47t53 49.5t21 26.5v584q0 26 24 26h2h37q27 0 27 -26v-766q0 -27 -27 -27h-25q-12 0 -17 7t-7 18l-8 79q-8 -10 -31 -31.5t-58.5 -42t-84 -35.5t-109.5 -15 q-172 0 -250 99t-78 273z" />
<glyph unicode="v" horiz-adv-x="835" d="M31 810q2 10 16 9h45q18 0 27 -18l297 -676h2l299 676q8 18 26 18h45q14 0 16 -9q1 -3 1 -6q0 -7 -4 -16l-357 -790q-10 -18 -24 -18h-8q-16 0 -25 18l-352 790q-5 9 -5 17q0 3 1 5z" />
<glyph unicode="w" horiz-adv-x="1241" d="M70 786q-3 10 -3 17q0 16 15 16h45q20 0 27 -18l192 -645h2l244 665q6 18 24 19h9q18 0 24 -19l244 -665h2l192 645q6 18 27 18h45q16 0 16 -15q0 -7 -4 -18l-245 -788q-6 -18 -25 -18h-8q-18 0 -25 18l-247 690h-3l-245 -690q-6 -18 -25 -18h-8q-18 0 -25 18z" />
<glyph unicode="x" horiz-adv-x="856" d="M66 9q-2 3 -1 6q0 6 7 14l301 391l-285 371q-10 10 -5 19t17 9h54q18 0 30 -18l240 -318h2l242 318q12 18 30 18h54q12 0 17 -9t-5 -19l-283 -369l297 -393q7 -7 7 -13q0 -2 -2 -6q-5 -10 -17 -10h-53q-18 0 -31 18l-256 342h-2l-256 -342q-12 -18 -31 -18h-53 q-12 0 -18 9z" />
<glyph unicode="y" horiz-adv-x="907" d="M27 808q2 11 16 11h45q16 0 27 -18l350 -692h4l319 692q8 18 27 18h45q14 0 16 -10q1 -3 1 -5q0 -8 -5 -18l-643 -1384q-6 -16 -26 -16h-47q-27 0 -15 28l277 594l-387 778q-5 9 -5 17q0 3 1 5z" />
<glyph unicode="z" horiz-adv-x="759" d="M70 23v22l481 686v6h-418q-25 0 -24 27v29q0 26 22 26h2h531q16 0 24 -12q4 -5 4 -11q0 -7 -6 -16l-479 -692v-6h424q27 0 26 -27v-28q0 -27 -26 -27h-537q-25 0 -24 23z" />
<glyph unicode="{" horiz-adv-x="747" d="M53 397v33q0 10 4 12t15 7q16 6 41.5 16t49 30.5t41 53.5t17.5 82v327q0 141 40 236.5t102.5 153t142.5 82t160 24.5q10 0 19 -7t9 -17v-25q0 -20 -20 -25q-164 -12 -264.5 -112.5t-100.5 -311.5v-325q0 -53 -19.5 -93t-44 -67t-47 -41t-28.5 -16v-2q4 -2 26.5 -15.5 t47 -39t45 -65.5t20.5 -95v-334q0 -211 100.5 -311.5t264.5 -112.5q20 -4 20 -25v-24q0 -10 -9 -17.5t-19 -7.5q-80 0 -160 24.5t-142.5 82t-102.5 152.5t-40 237v336q0 49 -17.5 81.5t-41 53t-49 31t-41.5 16.5q-10 4 -14.5 6t-4.5 12z" />
<glyph unicode="|" horiz-adv-x="399" d="M168 -590v2118q0 27 27 26h12q25 0 24 -26v-2118q0 -25 -26 -24h-10q-27 0 -27 24z" />
<glyph unicode="}" horiz-adv-x="747" d="M53 -586q0 20 21 25q164 12 264 112.5t100 311.5v334q0 53 19.5 92t44 65.5t47 40t29.5 17.5v2q-4 2 -27 15t-47.5 40t-45 66.5t-20.5 95.5v325q0 211 -100 311.5t-264 112.5q-20 4 -21 25v25q0 10 9.5 17t19.5 7q80 0 160 -24.5t142 -82t102 -152.5t40 -237v-327 q0 -49 17.5 -82t41 -53.5t49 -30.5t42.5 -16q10 -4 14 -6.5t4 -12.5v-33q0 -10 -4 -12t-14 -6q-16 -6 -42 -16.5t-49.5 -31t-41 -53t-17.5 -81.5v-336q0 -141 -40 -236.5t-102 -153t-142 -82t-160 -24.5q-10 0 -19.5 7t-9.5 18v24z" />
<glyph unicode="~" horiz-adv-x="1175" d="M135 543q31 53 72 96q35 37 85 67.5t116 30.5q72 0 125 -35.5t90 -74.5q27 -29 68.5 -60.5t92.5 -31.5q47 0 84 21.5t62.5 49t41 53t19.5 33.5q16 23 35 6l27 -18q20 -14 6 -33q-31 -55 -72 -98q-35 -37 -86 -66.5t-117 -29.5q-72 0 -122 36.5t-87 71.5 q-29 29 -70.5 60.5t-96.5 31.5q-47 0 -83 -21.5t-61.5 -49t-41 -53t-19.5 -33.5q-16 -23 -37 -7l-27 21q-16 14 -4 33z" />
<glyph unicode="&#xa1;" horiz-adv-x="460" d="M147 758q0 35 24 58.5t58 23.5q35 0 59.5 -23.5t24.5 -58.5t-24.5 -58.5t-59.5 -23.5t-58.5 23.5t-23.5 58.5zM176 -340l19 584q0 10 8 17t18 7h17q10 0 18 -7t8 -17l21 -582v-250q0 -16 -10.5 -21t-20.5 -5h-51q-27 0 -27 26v248z" />
<glyph unicode="&#xa2;" horiz-adv-x="911" d="M72 410q0 92 34.5 170.5t93 136t137.5 90.5t165 33q33 0 63 -6l21 81q6 20 32 17l11 -2q27 -4 18 -33l-20 -78q72 -20 116.5 -54t61.5 -54q16 -20 -4 -37l-23 -21q-16 -12 -23 -8t-18 14q-8 8 -43 33t-90 41l-178 -661q37 -6 74 -6q57 0 101 15t77 34.5t52.5 39 t29.5 27.5q20 23 39 4l16 -14q18 -18 8 -35q-12 -18 -39.5 -44.5t-68.5 -52.5t-95.5 -43t-117.5 -17q-27 0 -52.5 2t-48.5 8l-47 -185q-6 -20 -32 -16l-11 2q-27 4 -18 31l47 186q-59 23 -108.5 62t-84 91t-55 114.5t-20.5 134.5zM164 412q0 -111 56 -195t145 -123l176 654 q-10 2 -19.5 3t-19.5 1q-70 0 -131.5 -26t-107.5 -72t-72.5 -107.5t-26.5 -134.5z" />
<glyph unicode="&#xa3;" horiz-adv-x="1060" d="M135 649v8q0 10 8.5 17.5t18.5 7.5h74q-16 66 -41 157t-25 201q0 94 33 170t90 130.5t133 84t160 29.5q70 0 129 -16.5t106 -40t79 -49t44 -43.5q8 -10 8 -20.5t-12 -24.5l-16 -19q-8 -8 -19.5 -9t-25.5 13q-6 6 -30 25.5t-61.5 41t-90 39t-115.5 17.5 q-66 0 -124.5 -23.5t-102.5 -66.5t-69.5 -104.5t-25.5 -135.5q0 -109 25.5 -201t40.5 -155h413q14 0 20.5 -9t6.5 -20v-8q0 -27 -27 -27h-397q6 -37 9 -80.5t3 -84.5q-2 -92 -18.5 -181.5t-56.5 -187.5h614q16 0 20.5 -9t4.5 -20v-30q0 -10 -7.5 -17.5t-17.5 -7.5h-700 q-10 0 -18.5 9t-6.5 20v18q25 55 44 112.5t31.5 111t18.5 100.5t4 82q0 53 -5 92t-11 73h-88q-12 0 -19.5 9.5t-7.5 21.5z" />
<glyph unicode="&#xa4;" horiz-adv-x="1005" d="M169 374.5q1 10.5 5 14.5l109 109q-53 72 -53.5 162t53.5 159l-109 107q-4 6 -5 16t9 21l21 22q10 10 20 9t19 -5l104 -108q74 55 162 53t160 -55l108 108q4 4 15.5 5t21.5 -11l22 -18q10 -12 8.5 -21.5t-8.5 -17.5l-104 -105q53 -72 53 -161t-53 -158l104 -105 q14 -20 -6 -39l-20 -22q-10 -10 -20.5 -8t-16.5 6l-104 104q-72 -53 -161 -53t-161 53l-104 -108q-18 -10 -39 4l-21 24q-10 8 -9 18.5zM309 657q0 -39 14.5 -74.5t43.5 -64.5t64.5 -42t74.5 -13t74.5 13t64.5 42t43 64.5t14 74.5t-14 75t-43 65t-64.5 43t-74.5 14 t-75 -14.5t-64 -42.5q-29 -29 -43.5 -65t-14.5 -75z" />
<glyph unicode="&#xa5;" horiz-adv-x="1269" d="M52 1424.5q5 9.5 22 9.5h61q16 0 27 -13l467 -639l475 639q8 12 26 13h62q16 0 21.5 -9.5t-5.5 -21.5l-532 -705v-106h307q25 0 25 -27v-12q0 -25 -25 -25h-307v-180h307q25 0 25 -26v-13q0 -25 -25 -24h-307v-258q0 -27 -27 -27h-45q-25 0 -24 27v258h-308q-25 0 -24 24 v13q0 27 24 26h308v180h-308q-25 0 -24 25v12q0 27 24 27h308v104l-523 707q-10 12 -5 21.5z" />
<glyph unicode="&#xa6;" horiz-adv-x="735" d="M336 119q0 27 26 26h13q25 0 24 -26v-709q0 -25 -26 -24h-11q-27 0 -26 24v709zM336 821v707q0 27 26 26h13q25 0 24 -26v-707q0 -27 -26 -26h-11q-27 0 -26 26z" />
<glyph unicode="&#xa7;" horiz-adv-x="1091" d="M102 592q0 47 15.5 87t37 70.5t44 53t37.5 35.5q-12 10 -34 32.5t-43.5 56.5t-38 78t-16.5 99q0 57 25 118.5t77 112.5t136 85t203 34q76 0 140.5 -16.5t111.5 -36.5q53 -23 98 -51q6 -4 12 -14.5t-4 -26.5l-20 -31q-6 -10 -15.5 -14t-25.5 6q-4 2 -30 17.5t-65.5 33.5 t-92 32.5t-109.5 14.5q-96 0 -162 -24.5t-106.5 -63.5t-59 -85t-18.5 -91q0 -119 92 -190.5t244 -118.5q100 -35 184 -71t142.5 -82t91 -105.5t32.5 -139.5q0 -47 -18.5 -88t-43 -73.5t-48 -55t-35.5 -35.5q12 -10 36.5 -33.5t48 -58.5t41 -82t17.5 -104q0 -74 -36 -136.5 t-95 -106.5t-138 -69.5t-165 -25.5q-88 0 -161 21.5t-128 50t-89 54.5t-44 36q-8 8 -13 17t7 26l26 33q18 23 39 2q6 -6 37 -32t78 -52.5t111.5 -48t138.5 -21.5q61 0 121.5 17.5t106.5 50t75 78.5t29 104q0 125 -102.5 200.5t-282.5 135.5q-86 29 -159 63.5t-125 81.5 t-82 107.5t-30 138.5zM199 596q0 -61 23.5 -106.5t66.5 -81t103 -63t134 -52.5q66 -20 125.5 -45t112.5 -55q10 8 29.5 26.5t40 43t35 57t14.5 71.5q0 61 -27 107.5t-76 83t-120.5 66.5t-161.5 61q-55 16 -105.5 35.5t-87.5 48.5q-12 -12 -30.5 -30t-35 -41.5t-28.5 -55 t-12 -70.5z" />
<glyph unicode="&#xa8;" horiz-adv-x="847" d="M193 1288q0 31 20 51.5t49 20.5q31 0 50.5 -20.5t19.5 -51.5q0 -29 -19.5 -48t-50.5 -19q-29 0 -49 19.5t-20 47.5zM586 1288q0 31 19.5 51.5t47.5 20.5q31 0 51.5 -20.5t20.5 -51.5q0 -29 -20.5 -48t-51.5 -19q-29 0 -48 19.5t-19 47.5z" />
<glyph unicode="&#xa9;" horiz-adv-x="1705" d="M115 717q0 152 58 286t157.5 234t233.5 158.5t288 58.5q152 0 287 -58.5t235.5 -158.5t158.5 -234.5t58 -285.5q0 -154 -58 -288t-158.5 -233.5t-235.5 -157.5t-287 -58q-154 0 -288 58t-233.5 157.5t-157.5 233.5t-58 288zM195 717q0 -135 52 -255t141 -209t209 -141.5 t255 -52.5t255 52.5t209 141.5t141 209t52 255t-52 255t-141 209t-209 140t-255 51t-255 -51t-209 -140t-141 -209t-52 -255zM481 713q0 82 31 152.5t83 122.5t124 83t151 31q61 0 124 -18.5t114 -59.5q23 -18 4 -39l-18 -22q-8 -10 -17.5 -9.5t-17.5 7.5q-41 33 -90 46 t-97 13q-63 0 -118.5 -24.5t-95.5 -65.5t-63.5 -96.5t-23.5 -118.5t23.5 -118.5t63.5 -96.5t95.5 -64.5t118.5 -23.5q100 0 185 63q23 16 39 -4l18 -25q12 -20 -2 -34q-53 -47 -113.5 -67.5t-128.5 -20.5q-80 0 -151.5 30.5t-123.5 82.5t-83 124t-31 152z" />
<glyph unicode="&#xaa;" horiz-adv-x="663" d="M82 1026q0 86 66.5 142.5t183.5 56.5q47 0 89 -9.5t54 -13.5q0 49 -4 84t-16.5 58.5t-37 34t-65.5 10.5q-74 0 -120 -18.5t-56 -22.5q-18 -6 -22 10l-9 26q-6 16 11 25q4 2 56 23.5t144 21.5q70 0 108 -21.5t56.5 -58.5t21.5 -88t3 -110v-316q0 -20 -21 -20h-22 q-16 0 -21 16l-6 47q-29 -25 -79 -51.5t-120 -26.5q-84 0 -139 54.5t-55 146.5zM145 1028q0 -63 39.5 -101t98.5 -38q66 0 117 29.5t73 58.5v164q-16 6 -55 17t-90 11q-80 0 -131.5 -41t-51.5 -100z" />
<glyph unicode="&#xab;" horiz-adv-x="829" d="M89 425q1 9 5 17l221 316q10 16 18.5 17t14.5 1h33q12 0 16 -10t-6 -27l-192 -313l192 -322q10 -16 6 -26t-16 -10h-33q-6 0 -14 1t-19 17l-221 322q-6 8 -5 17zM417 425q1 9 5 17l221 316q10 16 18.5 17t14.5 1h33q12 0 16 -10t-6 -27l-193 -313l193 -322q10 -16 6 -26 t-16 -10h-33q-6 0 -14.5 1t-18.5 17l-221 322q-6 8 -5 17z" />
<glyph unicode="&#xac;" horiz-adv-x="1087" d="M98 696v31q0 27 27 27h788q25 0 25 -27v-410q0 -25 -27 -24h-32q-27 0 -27 24v353h-727q-27 0 -27 26z" />
<glyph unicode="&#xad;" horiz-adv-x="710" d="M98 500v22q0 27 25 27h463q27 0 26 -27v-22q0 -27 -26 -27h-463q-25 0 -25 27z" />
<glyph unicode="&#xae;" horiz-adv-x="1708" d="M115 717q0 152 58 286t157.5 234t233.5 158.5t288 58.5q152 0 287 -58.5t235.5 -158.5t158.5 -234.5t58 -285.5q0 -154 -58 -288t-158.5 -233.5t-235.5 -157.5t-287 -58q-154 0 -288 58t-233.5 157.5t-157.5 233.5t-58 288zM195 717q0 -135 52 -255t141 -209t209 -141.5 t255 -52.5t255 52.5t209 141.5t141 209t52 255t-52 255t-141 209t-209 140t-255 51t-255 -51t-209 -140t-141 -209t-52 -255zM590 369v702q0 27 24 27h299q49 0 96.5 -13.5t83 -42t58.5 -72.5t23 -104q0 -55 -18.5 -96t-47.5 -68.5t-63.5 -43t-65.5 -21.5l143 -262 q6 -10 2 -20.5t-18 -10.5h-47q-18 0 -29 21l-137 266h-29h-192v-262q0 -27 -25 -27h-33q-25 0 -24 27zM672 707h241q70 0 123.5 42t53.5 117q0 88 -59.5 123t-141.5 35h-217v-317z" />
<glyph unicode="&#xaf;" horiz-adv-x="847" d="M119 1243v27q0 27 26 26h557q27 0 27 -26v-27q0 -25 -27 -24h-557q-27 0 -26 24z" />
<glyph unicode="&#xb0;" horiz-adv-x="716" d="M76 1174q0 59 21.5 110t60.5 90t90 60.5t110 21.5q57 0 108.5 -21.5t90.5 -60.5t61.5 -90t22.5 -110t-22.5 -110.5t-61.5 -90.5t-90.5 -60.5t-108.5 -21.5q-59 0 -110 21.5t-90 60.5t-60.5 90t-21.5 111zM147 1174q0 -43 16.5 -81t46.5 -68t67.5 -46t80.5 -16q41 0 79 16 t66.5 46t46 67.5t17.5 81.5q0 43 -17.5 80.5t-46 66.5t-66.5 45t-79 16q-43 0 -80.5 -16t-67.5 -45t-46.5 -66.5t-16.5 -80.5z" />
<glyph unicode="&#xb1;" horiz-adv-x="1257" d="M209 178v31q0 27 27 27h788q25 0 25 -27v-31q0 -27 -25 -26h-788q-27 0 -27 26zM209 809v31q0 27 27 26h350v344q0 25 26 25h33q27 0 27 -25v-344h352q25 0 25 -26v-31q0 -27 -25 -27h-352v-258q0 -27 -27 -26h-33q-27 0 -26 26v258h-350q-27 0 -27 27z" />
<glyph unicode="&#xb2;" horiz-adv-x="655" d="M111 1049v18l284 266q35 33 53.5 66t20.5 69q0 45 -37 84t-110 39q-57 0 -92 -27.5t-48 -39.5q-4 -6 -10 -6t-10 4l-27 24q-10 10 -2 21q20 25 49 45q25 16 61 31.5t83 15.5q106 0 161.5 -55.5t55.5 -128.5q0 -49 -25.5 -94.5t-68.5 -86.5l-218 -198h293q14 0 15 -17v-30 q0 -16 -15 -17h-395q-18 0 -18 17z" />
<glyph unicode="&#xb3;" horiz-adv-x="647" d="M106 1096q-12 10 0 22l23 23q12 12 27 0q6 -6 17 -16.5t30.5 -21.5t48.5 -19.5t67 -8.5q70 0 114 33t44 84q0 47 -40 82t-126 35h-92q-16 0 -16 20v25q0 16 16 16h92q63 0 106.5 27.5t43.5 85.5q0 51 -40 80.5t-99 29.5q-35 0 -59.5 -8t-43 -18.5t-29 -20.5t-14.5 -14 q-12 -12 -20 -2l-27 22q-12 12 -2 23q23 23 53 41q27 16 63 29.5t83 13.5q92 0 151.5 -45t59.5 -123q0 -51 -34 -91t-73 -57q35 -12 62 -34q23 -18 43 -48t20 -73q0 -76 -64.5 -126t-168.5 -50q-47 0 -84 10t-64 23.5t-44 27.5t-24 23z" />
<glyph unicode="&#xb4;" horiz-adv-x="618" d="M147 1178q-8 16 13 28l338 178q8 4 18 4.5t16 -10.5l21 -41q10 -23 -18 -37l-347 -157q-14 -6 -19 -4t-9 12z" />
<glyph unicode="&#xb5;" horiz-adv-x="1034" d="M160 -588v1381q0 27 26 26h37q27 0 27 -26v-441q0 -143 63.5 -214.5t180.5 -71.5q63 0 112 20t84 47t53.5 49.5t20.5 26.5v584q0 27 27 26h36q27 0 27 -26v-766q0 -27 -27 -27h-24q-12 0 -17.5 7t-7.5 18l-8 79q-8 -10 -30.5 -31.5t-58.5 -42t-84 -35.5t-110 -15 q-80 0 -144 31.5t-93 74.5v-674q0 -12 -9.5 -19t-19.5 -7h-35q-27 0 -26 26z" />
<glyph unicode="&#xb6;" horiz-adv-x="1402" d="M53 1004q0 88 31 166.5t85 137t128 92.5t160 34h876q27 0 27 -27v-25q0 -27 -27 -26h-219v-1944q0 -27 -27 -26h-22q-10 0 -18.5 6t-8.5 20v1944h-358v-1944q0 -27 -27 -26h-22q-10 0 -18.5 6t-8.5 20v1168h-147q-92 0 -166 35.5t-127 94t-82 135.5t-29 159z" />
<glyph unicode="&#xb7;" horiz-adv-x="477" d="M156 535q0 35 24.5 58t59.5 23t58.5 -23.5t23.5 -57.5q0 -35 -23.5 -58.5t-58.5 -23.5t-59.5 23.5t-24.5 58.5z" />
<glyph unicode="&#xb8;" horiz-adv-x="505" d="M80 -438q-14 23 2 37l20 16q14 12 33 -6q10 -10 35 -26.5t70 -16.5q55 0 87.5 36t32.5 87q0 37 -17 61.5t-44 40.5t-60.5 24.5t-66.5 12.5q-25 6 -25 27v145h74v-111q92 -10 155.5 -58t63.5 -140q0 -41 -15 -77t-42 -63.5t-63.5 -43t-79.5 -15.5q-59 0 -102.5 23.5 t-57.5 46.5z" />
<glyph unicode="&#xb9;" horiz-adv-x="382" d="M57 1509q-6 12 6 23l150 106h25q20 0 20 -16v-573q0 -16 -16 -17h-41q-16 0 -17 17v493l-96 -57q-12 -6 -18 4z" />
<glyph unicode="&#xba;" horiz-adv-x="677" d="M88 1128q0 154 65.5 240t184.5 86q121 0 186.5 -86t65.5 -240q0 -150 -65.5 -235.5t-186.5 -85.5q-119 0 -184.5 86t-65.5 235zM162 1128q0 -121 46 -187.5t130 -66.5q86 0 132 67t46 187q0 123 -46 192t-132 69q-84 0 -130 -69t-46 -192z" />
<glyph unicode="&#xbb;" horiz-adv-x="829" d="M104.5 78q-4.5 10 6.5 26l192 322l-192 313q-10 16 -6 26.5t16 10.5h33q6 0 14 -1t18 -17l222 -316q4 -8 5 -17t-5 -17l-222 -322q-10 -16 -18 -17t-14 -1h-33q-12 0 -16.5 10zM432 765.5q4 10.5 17 10.5h32q6 0 14.5 -1t18.5 -17l221 -316q4 -8 5 -17t-5 -17l-221 -322 q-10 -16 -18.5 -17t-14.5 -1h-32q-12 0 -16.5 10t5.5 26l193 322l-193 313q-10 16 -6 26.5z" />
<glyph unicode="&#xbc;" horiz-adv-x="1300" d="M96 1305q-6 12 6 22l150 107h24q20 0 21 -17v-573q0 -16 -16 -17h-41q-16 0 -17 17v493l-96 -57q-12 -6 -18 4zM152.5 8q-5.5 8 1.5 21l786 1394q4 8 12.5 9.5t14.5 1.5h30q12 0 17.5 -8.5t-0.5 -20.5l-787 -1395q-4 -8 -12 -9t-14 -1h-31q-12 0 -17.5 8zM645 160v18 l387 428h29q20 0 20 -18v-379h80q18 0 19 -16v-33q0 -16 -19 -17h-80v-125q0 -18 -20 -18h-35q-20 0 -20 18v123h-342q-18 0 -19 19zM762 211h244v266z" />
<glyph unicode="&#xbd;" horiz-adv-x="1370" d="M96 1305q-6 12 6 22l150 107h24q20 0 21 -17v-573q0 -16 -16 -17h-41q-16 0 -17 17v493l-96 -57q-12 -6 -18 4zM152.5 8q-5.5 8 1.5 21l786 1394q4 8 12.5 9.5t14.5 1.5h30q12 0 17.5 -8.5t-0.5 -20.5l-787 -1395q-4 -8 -12 -9t-14 -1h-31q-12 0 -17.5 8zM793 16v19 l284 266q35 33 53.5 65.5t20.5 69.5q0 45 -37 84t-110 39q-57 0 -92 -27.5t-48 -39.5q-10 -12 -20 -3l-27 25q-4 4 -5 9t3 12q20 25 49 45q25 16 61 31.5t83 15.5q106 0 161.5 -55.5t55.5 -129.5q0 -49 -25.5 -94t-69.5 -86l-217 -199h293q14 0 15 -16v-31q0 -16 -15 -16 h-395q-18 0 -18 16z" />
<glyph unicode="&#xbe;" horiz-adv-x="1445" d="M100 891q-12 10 0 22l23 23q12 12 27 0q6 -6 17 -16.5t30.5 -21.5t48 -19.5t67.5 -8.5q70 0 114 33t44 84q0 47 -40 82t-126 35h-92q-16 0 -16 20v25q0 16 16 16h92q63 0 106.5 28t43.5 85q0 51 -40 81t-100 30q-35 0 -59.5 -8.5t-42.5 -18.5t-28.5 -20.5l-14.5 -14.5 q-12 -12 -20 -2l-27 23q-12 12 -2 22q23 23 53 41q27 16 62.5 29.5t82.5 13.5q92 0 151.5 -45t59.5 -123q0 -51 -33.5 -91t-72.5 -56q35 -12 61 -35q23 -18 43.5 -48t20.5 -73q0 -76 -65 -126t-169 -50q-47 0 -83.5 10t-63.5 23.5t-44.5 28t-23.5 22.5zM296 8q-5 8 1 21 l786 1394q4 8 12.5 9.5t14.5 1.5h31q12 0 17 -8.5t-1 -20.5l-786 -1395q-4 -8 -12.5 -9t-14.5 -1h-31q-12 0 -17 8zM788 160v18l388 428h28q20 0 21 -18v-379h80q18 0 18 -16v-33q0 -16 -18 -17h-80v-125q0 -18 -21 -18h-35q-20 0 -20 18v123h-342q-18 0 -19 19zM905 211 h244v266z" />
<glyph unicode="&#xbf;" horiz-adv-x="489" d="M-135 -346q0 68 25.5 118t63.5 89t83 69.5t83 59t63.5 58.5t25.5 67v116q0 29 27 29h38q14 0 19.5 -9t5.5 -20v-118q0 -49 -25.5 -88t-63.5 -72t-82 -63.5t-82 -64.5t-63.5 -74t-25.5 -91q0 -41 16.5 -79t49 -67.5t78.5 -48t108 -18.5q70 0 122 19.5t88 44t56.5 48 t28.5 31.5q6 6 13 9.5t22 -7.5l20 -14q16 -10 14 -19.5t-8 -19.5q-35 -51 -88 -88q-45 -33 -112.5 -59.5t-161.5 -26.5q-156 0 -247 81t-91 208zM172 758q0 35 24.5 58.5t59.5 23.5t58.5 -23.5t23.5 -58.5t-23.5 -58.5t-58.5 -23.5t-59.5 23.5t-24.5 58.5z" />
<glyph unicode="&#xc0;" horiz-adv-x="1337" d="M12 25l631 1425q6 14 25 14h6q18 0 26 -14l625 -1425q4 -10 1 -17.5t-19 -7.5h-54q-10 0 -17 6t-11 12l-166 377h-783l-163 -377q-4 -6 -11.5 -12t-17.5 -6h-57q-25 0 -15 25zM313 475h711l-350 825h-4zM496 1794l20 41q6 10 17.5 10t17.5 -4l336 -184q18 -10 12 -29 l-10 -20q-8 -16 -33 -6l-352 161q-18 10 -8 31z" />
<glyph unicode="&#xc1;" horiz-adv-x="1337" d="M12 25l631 1425q6 14 25 14h6q18 0 26 -14l625 -1425q4 -10 1 -17.5t-19 -7.5h-54q-10 0 -17 6t-11 12l-166 377h-783l-163 -377q-4 -6 -11.5 -12t-17.5 -6h-57q-25 0 -15 25zM313 475h711l-350 825h-4zM494 1628q-6 18 12 29l336 184q6 4 17.5 4t17.5 -10l20 -41 q10 -20 -8 -31l-352 -161q-25 -10 -33 6z" />
<glyph unicode="&#xc2;" horiz-adv-x="1337" d="M12 25l631 1425q6 14 25 14h6q18 0 26 -14l625 -1425q4 -10 1 -17.5t-19 -7.5h-54q-10 0 -17 6t-11 12l-166 377h-783l-163 -377q-4 -6 -11.5 -12t-17.5 -6h-57q-25 0 -15 25zM313 475h711l-350 825h-4zM395 1599q-10 14 8 29l248 201q10 10 21 10h6q10 0 20 -10 l248 -201q18 -14 8 -29l-18 -22q-4 -6 -11 -10t-20 6l-231 172l-230 -172q-12 -10 -19 -6t-11 10z" />
<glyph unicode="&#xc3;" horiz-adv-x="1337" d="M12 25l631 1425q6 14 25 14h6q18 0 26 -14l625 -1425q4 -10 1 -17.5t-19 -7.5h-54q-10 0 -17 6t-11 12l-166 377h-783l-163 -377q-4 -6 -11.5 -12t-17.5 -6h-57q-25 0 -15 25zM313 475h711l-350 825h-4zM371 1675q6 14 17.5 43t34 58.5t56 52t82.5 22.5q55 0 85 -28.5 t49.5 -64.5t40 -64.5t57.5 -28.5q29 0 48 13.5t33.5 33t22.5 40t12 34.5q8 27 31 14l23 -8q6 -4 11 -9t1 -18q-2 -6 -11 -34.5t-30.5 -59.5t-57.5 -56.5t-89 -25.5t-83 30t-50.5 64.5t-41 64.5t-57.5 30q-29 0 -49 -14.5t-33.5 -35t-21.5 -42t-13 -35.5q-6 -25 -30 -15 l-25 11q-20 6 -12 28z" />
<glyph unicode="&#xc4;" horiz-adv-x="1337" d="M12 25l631 1425q6 14 25 14h6q18 0 26 -14l625 -1425q4 -10 1 -17.5t-19 -7.5h-54q-10 0 -17 6t-11 12l-166 377h-783l-163 -377q-4 -6 -11.5 -12t-17.5 -6h-57q-25 0 -15 25zM313 475h711l-350 825h-4zM394 1708q0 31 20.5 51.5t48.5 20.5q31 0 51.5 -20.5t20.5 -51.5 q0 -29 -20.5 -48.5t-51.5 -19.5q-29 0 -49 19.5t-20 48.5zM822 1708q0 31 20.5 51.5t48.5 20.5q31 0 51.5 -20.5t20.5 -51.5q0 -29 -20.5 -48.5t-51.5 -19.5q-29 0 -49 19.5t-20 48.5z" />
<glyph unicode="&#xc5;" horiz-adv-x="1337" d="M12 25l631 1425q6 14 25 14h6q18 0 26 -14l625 -1425q4 -10 1 -17.5t-19 -7.5h-54q-10 0 -17 6t-11 12l-166 377h-783l-163 -377q-4 -6 -11.5 -12t-17.5 -6h-57q-25 0 -15 25zM313 475h711l-350 825h-4zM461 1761q0 45 16.5 86t46 70t68.5 46t86 17q45 0 85 -17t69.5 -46 t47 -70t17.5 -86q0 -47 -17.5 -86t-47 -68.5t-69.5 -46t-85 -16.5q-47 0 -86 16.5t-68.5 46t-46 68.5t-16.5 86zM526 1761q0 -61 45.5 -106t106.5 -45t106.5 45t45.5 106t-45.5 106.5t-106.5 45.5t-106.5 -45t-45.5 -107z" />
<glyph unicode="&#xc6;" horiz-adv-x="1873" d="M-24.5 10q-2.5 10 8.5 25l870 1364q10 16 19.5 25.5t31.5 9.5h805q27 0 27 -27v-33q0 -27 -27 -26h-756v-568h658q27 0 26 -26v-35q0 -27 -26 -27h-658v-606h756q18 0 22.5 -9t4.5 -20v-30q0 -27 -27 -27h-819q-27 0 -27 27v368h-545l-237 -377q-12 -18 -33 -18h-57 q-14 0 -16.5 10zM367 475h497v782z" />
<glyph unicode="&#xc7;" horiz-adv-x="1470" d="M115 715q0 154 58 289t158.5 234t235.5 157.5t289 58.5q158 0 277.5 -49t220.5 -141q8 -8 9 -18.5t-7 -18.5l-33 -35q-16 -16 -35 2q-88 78 -196.5 123t-235.5 45q-135 0 -252 -51t-203 -139.5t-135 -206t-49 -250.5t49 -250t135 -204t203 -138t252 -51q133 0 236.5 47 t195.5 125q18 14 33 4l35 -35q18 -16 0 -35q-104 -102 -233.5 -150t-266.5 -48q-8 0 -15 1t-16 1v-93q92 -10 155.5 -58t63.5 -140q0 -41 -15 -77t-41.5 -63.5t-63.5 -43t-80 -15.5q-59 0 -102.5 23.5t-57.5 46.5t2 37l21 16q14 12 32 -6q10 -10 35 -26.5t70 -16.5 q55 0 88 36t33 87q0 37 -17.5 61.5t-44 40.5t-60.5 24.5t-67 12.5q-25 6 -24 27v133q-135 18 -252 80.5t-202 159t-134 221.5t-49 266z" />
<glyph unicode="&#xc8;" horiz-adv-x="1224" d="M217 27v1380q0 27 27 27h821q27 0 27 -27v-35q0 -27 -27 -26h-750v-566h650q27 0 26 -26v-35q0 -27 -26 -27h-650v-606h750q27 0 27 -27v-32q0 -27 -27 -27h-821q-27 0 -27 27zM463 1794l20 41q6 10 17.5 10t17.5 -4l336 -184q18 -10 12 -29l-10 -20q-8 -16 -33 -6 l-352 161q-18 10 -8 31z" />
<glyph unicode="&#xc9;" horiz-adv-x="1224" d="M217 27v1380q0 27 27 27h821q27 0 27 -27v-35q0 -27 -27 -26h-750v-566h650q27 0 26 -26v-35q0 -27 -26 -27h-650v-606h750q27 0 27 -27v-32q0 -27 -27 -27h-821q-27 0 -27 27zM461 1628q-6 18 12 29l336 184q6 4 17.5 4t17.5 -10l20 -41q10 -20 -8 -31l-352 -161 q-25 -10 -33 6z" />
<glyph unicode="&#xca;" horiz-adv-x="1224" d="M217 27v1380q0 27 27 27h821q27 0 27 -27v-35q0 -27 -27 -26h-750v-566h650q27 0 26 -26v-35q0 -27 -26 -27h-650v-606h750q27 0 27 -27v-32q0 -27 -27 -27h-821q-27 0 -27 27zM362 1599q-10 14 8 29l248 201q10 10 21 10h6q10 0 20 -10l248 -201q18 -14 8 -29l-18 -22 q-4 -6 -11 -10t-20 6l-231 172l-230 -172q-12 -10 -19 -6t-11 10z" />
<glyph unicode="&#xcb;" horiz-adv-x="1224" d="M217 27v1380q0 27 27 27h821q27 0 27 -27v-35q0 -27 -27 -26h-750v-566h650q27 0 26 -26v-35q0 -27 -26 -27h-650v-606h750q27 0 27 -27v-32q0 -27 -27 -27h-821q-27 0 -27 27zM369 1708q0 31 20.5 51.5t48.5 20.5q31 0 51.5 -20.5t20.5 -51.5q0 -29 -20.5 -48.5 t-51.5 -19.5q-29 0 -49 19.5t-20 48.5zM797 1708q0 31 20.5 51.5t48.5 20.5q31 0 51.5 -20.5t20.5 -51.5q0 -29 -20.5 -48.5t-51.5 -19.5q-29 0 -49 19.5t-20 48.5z" />
<glyph unicode="&#xcc;" horiz-adv-x="532" d="M86 1794l20 41q6 10 17.5 10t17.5 -4l336 -184q18 -10 12 -29l-10 -20q-8 -16 -33 -6l-352 161q-18 10 -8 31zM217 27v1380q0 27 27 27h45q27 0 26 -27v-1380q0 -12 -9 -19.5t-19 -7.5h-43q-27 0 -27 27z" />
<glyph unicode="&#xcd;" horiz-adv-x="532" d="M84 1628q-6 18 12 29l336 184q6 4 17.5 4t17.5 -10l20 -41q10 -20 -8 -31l-352 -161q-25 -10 -33 6zM217 27v1380q0 27 27 27h45q27 0 26 -27v-1380q0 -12 -9 -19.5t-19 -7.5h-43q-27 0 -27 27z" />
<glyph unicode="&#xce;" horiz-adv-x="532" d="M-15 1599q-10 14 8 29l248 201q10 10 21 10h6q10 0 20 -10l248 -201q18 -14 8 -29l-18 -22q-4 -6 -11 -10t-20 6l-231 172l-230 -172q-12 -10 -19 -6t-11 10zM217 27v1380q0 27 27 27h45q27 0 26 -27v-1380q0 -12 -9 -19.5t-19 -7.5h-43q-27 0 -27 27z" />
<glyph unicode="&#xcf;" horiz-adv-x="532" d="M-16 1708q0 31 20.5 51.5t48.5 20.5q31 0 51.5 -20.5t20.5 -51.5q0 -29 -20.5 -48.5t-51.5 -19.5q-29 0 -49 19.5t-20 48.5zM217 27v1380q0 27 27 27h45q27 0 26 -27v-1380q0 -12 -9 -19.5t-19 -7.5h-43q-27 0 -27 27zM412 1708q0 31 20.5 51.5t48.5 20.5 q31 0 51.5 -20.5t20.5 -51.5q0 -29 -20.5 -48.5t-51.5 -19.5q-29 0 -49 19.5t-20 48.5z" />
<glyph unicode="&#xd0;" horiz-adv-x="1517" d="M127 707v10q0 27 25 26h71v664q0 27 25 27h434q150 0 281 -56.5t229 -154t154.5 -227.5t56.5 -277q0 -150 -56.5 -281t-154.5 -228t-229.5 -153.5t-280.5 -56.5h-434q-25 0 -25 27v653h-71q-25 0 -25 27zM319 88h347q133 0 248.5 48t200.5 133t134 200t49 250 q0 133 -49 247.5t-134 198.5t-200.5 132.5t-248.5 48.5h-347v-603h512q27 0 27 -26v-12q0 -25 -27 -25h-512v-592z" />
<glyph unicode="&#xd1;" horiz-adv-x="1579" d="M217 27v1400q0 12 9.5 19.5t21.5 7.5h35l983 -1280h2v1233q0 27 26 27h41q27 0 27 -27v-1401q0 -14 -10.5 -20t-22.5 -6h-26l-7 6q-6 6 -35.5 43t-90 114.5t-170 221t-277.5 364.5t-412 543h-2v-1245q0 -27 -26 -27h-39q-27 0 -27 27zM496 1675q6 14 17.5 43t34 58.5 t56 52t82.5 22.5q55 0 85 -28.5t49.5 -64.5t40 -64.5t57.5 -28.5q29 0 48 13.5t33.5 33t22.5 40t12 34.5q8 27 31 14l23 -8q6 -4 11 -9t1 -18q-2 -6 -11 -34.5t-30.5 -59.5t-57.5 -56.5t-89 -25.5t-83 30t-50.5 64.5t-41 64.5t-57.5 30q-29 0 -49 -14.5t-33.5 -35t-21.5 -42 t-13 -35.5q-6 -25 -30 -15l-25 11q-20 6 -12 28z" />
<glyph unicode="&#xd2;" horiz-adv-x="1705" d="M115 715q0 154 57 289t157.5 234t234.5 157.5t288 58.5t289 -58.5t235.5 -157.5t157.5 -234.5t57 -288.5q0 -154 -57 -288t-157.5 -233.5t-235.5 -156.5t-289 -57t-288 57t-234.5 156.5t-157.5 233.5t-57 288zM205 715q0 -135 51 -252t138 -205t205 -138t253 -50t253 50 t206 138t139 205t51 252t-51 252.5t-139 206t-206 139.5t-253 51t-253 -51t-205 -139.5t-138 -206t-51 -252.5zM672 1794l20 41q6 10 17.5 10t17.5 -4l336 -184q18 -10 12 -29l-10 -20q-8 -16 -33 -6l-352 161q-18 10 -8 31z" />
<glyph unicode="&#xd3;" horiz-adv-x="1705" d="M115 715q0 154 57 289t157.5 234t234.5 157.5t288 58.5t289 -58.5t235.5 -157.5t157.5 -234.5t57 -288.5q0 -154 -57 -288t-157.5 -233.5t-235.5 -156.5t-289 -57t-288 57t-234.5 156.5t-157.5 233.5t-57 288zM205 715q0 -135 51 -252t138 -205t205 -138t253 -50t253 50 t206 138t139 205t51 252t-51 252.5t-139 206t-206 139.5t-253 51t-253 -51t-205 -139.5t-138 -206t-51 -252.5zM670 1628q-6 18 12 29l336 184q6 4 17.5 4t17.5 -10l20 -41q10 -20 -8 -31l-352 -161q-25 -10 -33 6z" />
<glyph unicode="&#xd4;" horiz-adv-x="1705" d="M115 715q0 154 57 289t157.5 234t234.5 157.5t288 58.5t289 -58.5t235.5 -157.5t157.5 -234.5t57 -288.5q0 -154 -57 -288t-157.5 -233.5t-235.5 -156.5t-289 -57t-288 57t-234.5 156.5t-157.5 233.5t-57 288zM205 715q0 -135 51 -252t138 -205t205 -138t253 -50t253 50 t206 138t139 205t51 252t-51 252.5t-139 206t-206 139.5t-253 51t-253 -51t-205 -139.5t-138 -206t-51 -252.5zM571 1599q-10 14 8 29l248 201q10 10 21 10h6q10 0 20 -10l248 -201q18 -14 8 -29l-18 -22q-4 -6 -11 -10t-20 6l-231 172l-230 -172q-12 -10 -19 -6t-11 10z " />
<glyph unicode="&#xd5;" horiz-adv-x="1705" d="M115 715q0 154 57 289t157.5 234t234.5 157.5t288 58.5t289 -58.5t235.5 -157.5t157.5 -234.5t57 -288.5q0 -154 -57 -288t-157.5 -233.5t-235.5 -156.5t-289 -57t-288 57t-234.5 156.5t-157.5 233.5t-57 288zM205 715q0 -135 51 -252t138 -205t205 -138t253 -50t253 50 t206 138t139 205t51 252t-51 252.5t-139 206t-206 139.5t-253 51t-253 -51t-205 -139.5t-138 -206t-51 -252.5zM547 1675q6 14 17.5 43t34 58.5t56 52t82.5 22.5q55 0 85 -28.5t49.5 -64.5t40 -64.5t57.5 -28.5q29 0 48 13.5t33.5 33t22.5 40t12 34.5q8 27 31 14l23 -8 q6 -4 11 -9t1 -18q-2 -6 -11 -34.5t-30.5 -59.5t-57.5 -56.5t-89 -25.5t-83 30t-50.5 64.5t-41 64.5t-57.5 30q-29 0 -49 -14.5t-33.5 -35t-21.5 -42t-13 -35.5q-6 -25 -30 -15l-25 11q-20 6 -12 28z" />
<glyph unicode="&#xd6;" horiz-adv-x="1705" d="M115 715q0 154 57 289t157.5 234t234.5 157.5t288 58.5t289 -58.5t235.5 -157.5t157.5 -234.5t57 -288.5q0 -154 -57 -288t-157.5 -233.5t-235.5 -156.5t-289 -57t-288 57t-234.5 156.5t-157.5 233.5t-57 288zM205 715q0 -135 51 -252t138 -205t205 -138t253 -50t253 50 t206 138t139 205t51 252t-51 252.5t-139 206t-206 139.5t-253 51t-253 -51t-205 -139.5t-138 -206t-51 -252.5zM570 1708q0 31 20.5 51.5t48.5 20.5q31 0 51.5 -20.5t20.5 -51.5q0 -29 -20.5 -48.5t-51.5 -19.5q-29 0 -49 19.5t-20 48.5zM998 1708q0 31 20.5 51.5t48.5 20.5 q31 0 51.5 -20.5t20.5 -51.5q0 -29 -20.5 -48.5t-51.5 -19.5q-29 0 -49 19.5t-20 48.5z" />
<glyph unicode="&#xd7;" d="M180 977.5q0 11.5 6 19.5l23 23q8 8 19.5 8t19.5 -8l248 -248l247 250q18 16 37 -2l25 -23q6 -8 7 -18t-7 -18l-248 -250l248 -248q8 -8 8 -19.5t-8 -17.5l-25 -23q-6 -8 -17 -9t-18 7l-249 250l-250 -248q-6 -8 -17.5 -8t-17.5 8l-25 23q-18 18 0 37l248 248l-248 247 q-6 8 -6 19.5z" />
<glyph unicode="&#xd8;" horiz-adv-x="1705" d="M117 715q0 154 57 289t156.5 234t234.5 157.5t289 58.5q147 0 277.5 -53t228.5 -148l135 131q16 18 35 0l8 -8q18 -18 0 -37l-133 -131q86 -98 137 -225t51 -268q0 -154 -58 -288t-157.5 -233.5t-234.5 -156.5t-289 -57q-150 0 -280 51t-228 145l-131 -127q-16 -18 -35 0 l-8 8q-18 18 0 37l129 127q-86 98 -135 224t-49 270zM207 715q0 -125 42 -233.5t118 -194.5l929 903q-88 82 -200.5 128t-241.5 46q-135 0 -253 -51t-205 -139.5t-138 -206t-51 -252.5zM412 242q86 -82 199.5 -127t242.5 -45q135 0 253 50t206 138t139 205t51 252 q0 123 -43 233.5t-121 196.5z" />
<glyph unicode="&#xd9;" horiz-adv-x="1474" d="M201 522v885q0 27 26 27h43q27 0 27 -27v-875q0 -98 29.5 -182t87 -145.5t138.5 -96t183 -34.5t184 33.5t139.5 95t88.5 145.5t31 182v877q0 27 28 27h41q27 0 27 -27v-885q0 -117 -38 -217t-108.5 -172t-170 -112.5t-222.5 -40.5q-121 0 -220 40.5t-169 112.5 t-107.5 172.5t-37.5 216.5zM573 1794l20 41q6 10 17.5 10t17.5 -4l336 -184q18 -10 12 -29l-10 -20q-8 -16 -33 -6l-352 161q-18 10 -8 31z" />
<glyph unicode="&#xda;" horiz-adv-x="1474" d="M201 522v885q0 27 26 27h43q27 0 27 -27v-875q0 -98 29.5 -182t87 -145.5t138.5 -96t183 -34.5t184 33.5t139.5 95t88.5 145.5t31 182v877q0 27 28 27h41q27 0 27 -27v-885q0 -117 -38 -217t-108.5 -172t-170 -112.5t-222.5 -40.5q-121 0 -220 40.5t-169 112.5 t-107.5 172.5t-37.5 216.5zM571 1628q-6 18 12 29l336 184q6 4 17.5 4t17.5 -10l20 -41q10 -20 -8 -31l-352 -161q-25 -10 -33 6z" />
<glyph unicode="&#xdb;" horiz-adv-x="1474" d="M201 522v885q0 27 26 27h43q27 0 27 -27v-875q0 -98 29.5 -182t87 -145.5t138.5 -96t183 -34.5t184 33.5t139.5 95t88.5 145.5t31 182v877q0 27 28 27h41q27 0 27 -27v-885q0 -117 -38 -217t-108.5 -172t-170 -112.5t-222.5 -40.5q-121 0 -220 40.5t-169 112.5 t-107.5 172.5t-37.5 216.5zM473 1599q-10 14 8 29l248 201q10 10 21 10h6q10 0 20 -10l248 -201q18 -14 8 -29l-18 -22q-4 -6 -11 -10t-20 6l-231 172l-230 -172q-12 -10 -19 -6t-11 10z" />
<glyph unicode="&#xdc;" horiz-adv-x="1474" d="M201 522v885q0 27 26 27h43q27 0 27 -27v-875q0 -98 29.5 -182t87 -145.5t138.5 -96t183 -34.5t184 33.5t139.5 95t88.5 145.5t31 182v877q0 27 28 27h41q27 0 27 -27v-885q0 -117 -38 -217t-108.5 -172t-170 -112.5t-222.5 -40.5q-121 0 -220 40.5t-169 112.5 t-107.5 172.5t-37.5 216.5zM471 1708q0 31 20.5 51.5t48.5 20.5q31 0 51.5 -20.5t20.5 -51.5q0 -29 -20.5 -48.5t-51.5 -19.5q-29 0 -49 19.5t-20 48.5zM899 1708q0 31 20.5 51.5t48.5 20.5q31 0 51.5 -20.5t20.5 -51.5q0 -29 -20.5 -48.5t-51.5 -19.5q-29 0 -49 19.5 t-20 48.5z" />
<glyph unicode="&#xdd;" horiz-adv-x="1146" d="M-9 1424.5q5 9.5 21 9.5h62q16 0 26 -13l467 -637l475 637q8 12 27 13h61q16 0 21.5 -9.5t-4.5 -21.5l-533 -705v-671q0 -27 -26 -27q-20 0 -45 1t-25 26v669l-522 707q-10 12 -5 21.5zM365 1628q-6 18 12 29l336 184q6 4 17.5 4t17.5 -10l20 -41q10 -20 -8 -31 l-352 -161q-25 -10 -33 6z" />
<glyph unicode="&#xde;" horiz-adv-x="1220" d="M217 27v1380q0 27 27 27h43q27 0 26 -27v-227h371q94 0 179 -36t147.5 -98.5t99.5 -145.5t37 -177q0 -96 -37 -181t-99.5 -148.5t-146.5 -99.5t-178 -36h-373v-231q0 -27 -32 -27h-37q-27 0 -27 27zM313 350h367q76 0 142.5 29t117.5 80t81 119.5t30 146.5 q0 76 -30 141.5t-81 113.5t-118.5 75.5t-143.5 27.5h-365v-733z" />
<glyph unicode="&#xdf;" horiz-adv-x="1134" d="M156 27v813q0 307 111.5 460.5t324.5 153.5q68 0 130 -17.5t111.5 -55.5t79 -98t29.5 -144q0 -72 -28.5 -133.5t-62.5 -113.5t-61.5 -95t-27.5 -76q0 -31 46 -68t101.5 -89t101.5 -121.5t46 -163.5q0 -80 -29 -136.5t-77 -92.5t-109.5 -53t-126.5 -17q-119 0 -172.5 26.5 t-46.5 42.5l12 39q4 10 11 16.5t20 -0.5q6 -4 23.5 -11t41 -15t52 -13.5t59.5 -5.5q51 0 96 13.5t79 41t54.5 68.5t20.5 97q0 78 -47.5 138t-103.5 110.5t-103 96.5t-47 93q0 41 28.5 91t64.5 103.5t64.5 110.5t28.5 113q0 61 -22.5 106t-58.5 73.5t-83 43t-96 14.5 q-170 0 -257 -132t-87 -400v-813q0 -27 -27 -27h-41q-23 0 -22 27z" />
<glyph unicode="&#xe0;" horiz-adv-x="874" d="M90 252q0 119 91 197.5t253 78.5q35 0 69 -5t61.5 -11t48 -12t28.5 -8q0 68 -5 117.5t-23.5 83.5t-54.5 51.5t-97 17.5q-51 0 -93 -8.5t-74 -17.5t-52.5 -18t-26.5 -11q-23 -8 -31 16l-10 25q-8 23 12 30q2 2 22.5 11.5t56.5 20.5t87 20.5t115 9.5q94 0 146.5 -27t78 -75 t30.5 -113.5t5 -143.5v-454q0 -27 -27 -27h-24q-18 0 -25 23l-8 73q-41 -37 -113.5 -76.5t-171.5 -39.5q-115 0 -191.5 72.5t-76.5 199.5zM174 254q0 -90 54.5 -142.5t140.5 -52.5q47 0 90 12.5t78.5 32t62.5 42t41 40.5v226q-20 10 -76.5 26.5t-130.5 16.5 q-117 0 -188.5 -54.5t-71.5 -146.5zM278 1337l21 41q6 10 17.5 10.5t17.5 -4.5l336 -184q18 -10 12 -29l-10 -20q-8 -16 -33 -6l-352 162q-18 10 -9 30z" />
<glyph unicode="&#xe1;" horiz-adv-x="874" d="M90 252q0 119 91 197.5t253 78.5q35 0 69 -5t61.5 -11t48 -12t28.5 -8q0 68 -5 117.5t-23.5 83.5t-54.5 51.5t-97 17.5q-51 0 -93 -8.5t-74 -17.5t-52.5 -18t-26.5 -11q-23 -8 -31 16l-10 25q-8 23 12 30q2 2 22.5 11.5t56.5 20.5t87 20.5t115 9.5q94 0 146.5 -27t78 -75 t30.5 -113.5t5 -143.5v-454q0 -27 -27 -27h-24q-18 0 -25 23l-8 73q-41 -37 -113.5 -76.5t-171.5 -39.5q-115 0 -191.5 72.5t-76.5 199.5zM174 254q0 -90 54.5 -142.5t140.5 -52.5q47 0 90 12.5t78.5 32t62.5 42t41 40.5v226q-20 10 -76.5 26.5t-130.5 16.5 q-117 0 -188.5 -54.5t-71.5 -146.5zM272 1178q-8 16 13 28l338 178q8 4 18 4.5t16 -10.5l21 -41q10 -23 -18 -37l-347 -157q-14 -6 -19 -4t-9 12z" />
<glyph unicode="&#xe2;" horiz-adv-x="874" d="M90 252q0 119 91 197.5t253 78.5q35 0 69 -5t61.5 -11t48 -12t28.5 -8q0 68 -5 117.5t-23.5 83.5t-54.5 51.5t-97 17.5q-51 0 -93 -8.5t-74 -17.5t-52.5 -18t-26.5 -11q-23 -8 -31 16l-10 25q-8 23 12 30q2 2 22.5 11.5t56.5 20.5t87 20.5t115 9.5q94 0 146.5 -27t78 -75 t30.5 -113.5t5 -143.5v-454q0 -27 -27 -27h-24q-18 0 -25 23l-8 73q-41 -37 -113.5 -76.5t-171.5 -39.5q-115 0 -191.5 72.5t-76.5 199.5zM157 1153q-10 14 8 29l248 200q10 10 21 11h6q10 0 20 -11l248 -200q18 -14 8 -29l-18 -23q-4 -6 -11 -10t-20 6l-231 172l-230 -172 q-12 -10 -19 -6t-11 10zM174 254q0 -90 54.5 -142.5t140.5 -52.5q47 0 90 12.5t78.5 32t62.5 42t41 40.5v226q-20 10 -76.5 26.5t-130.5 16.5q-117 0 -188.5 -54.5t-71.5 -146.5z" />
<glyph unicode="&#xe3;" horiz-adv-x="874" d="M90 252q0 119 91 197.5t253 78.5q35 0 69 -5t61.5 -11t48 -12t28.5 -8q0 68 -5 117.5t-23.5 83.5t-54.5 51.5t-97 17.5q-51 0 -93 -8.5t-74 -17.5t-52.5 -18t-26.5 -11q-23 -8 -31 16l-10 25q-8 23 12 30q2 2 22.5 11.5t56.5 20.5t87 20.5t115 9.5q94 0 146.5 -27t78 -75 t30.5 -113.5t5 -143.5v-454q0 -27 -27 -27h-24q-18 0 -25 23l-8 73q-41 -37 -113.5 -76.5t-171.5 -39.5q-115 0 -191.5 72.5t-76.5 199.5zM123 1225q6 14 17 42.5t33.5 58.5t56.5 52.5t83 22.5q55 0 85 -29t49.5 -64.5t40 -64.5t57.5 -29q29 0 48 13.5t33.5 33t22.5 40 t12 34.5q8 27 31 15l23 -9q6 -4 11 -9t1 -17q-2 -6 -11.5 -35t-31 -59.5t-57 -56t-89.5 -25.5q-53 0 -82.5 29.5t-50 64.5t-41 64.5t-57.5 29.5q-29 0 -49.5 -14.5t-33.5 -35t-21.5 -42t-12.5 -35.5q-6 -25 -30 -14l-25 10q-20 6 -12 29zM174 254q0 -90 54.5 -142.5 t140.5 -52.5q47 0 90 12.5t78.5 32t62.5 42t41 40.5v226q-20 10 -76.5 26.5t-130.5 16.5q-117 0 -188.5 -54.5t-71.5 -146.5z" />
<glyph unicode="&#xe4;" horiz-adv-x="874" d="M90 252q0 119 91 197.5t253 78.5q35 0 69 -5t61.5 -11t48 -12t28.5 -8q0 68 -5 117.5t-23.5 83.5t-54.5 51.5t-97 17.5q-51 0 -93 -8.5t-74 -17.5t-52.5 -18t-26.5 -11q-23 -8 -31 16l-10 25q-8 23 12 30q2 2 22.5 11.5t56.5 20.5t87 20.5t115 9.5q94 0 146.5 -27t78 -75 t30.5 -113.5t5 -143.5v-454q0 -27 -27 -27h-24q-18 0 -25 23l-8 73q-41 -37 -113.5 -76.5t-171.5 -39.5q-115 0 -191.5 72.5t-76.5 199.5zM174 254q0 -90 54.5 -142.5t140.5 -52.5q47 0 90 12.5t78.5 32t62.5 42t41 40.5v226q-20 10 -76.5 26.5t-130.5 16.5 q-117 0 -188.5 -54.5t-71.5 -146.5zM199 1288q0 31 20 51.5t49 20.5q31 0 50.5 -20.5t19.5 -51.5q0 -29 -19.5 -48t-50.5 -19q-29 0 -49 19.5t-20 47.5zM592 1288q0 31 19.5 51.5t47.5 20.5q31 0 51.5 -20.5t20.5 -51.5q0 -29 -20.5 -48t-51.5 -19q-29 0 -48 19.5t-19 47.5z " />
<glyph unicode="&#xe5;" horiz-adv-x="874" d="M90 252q0 119 91 197.5t253 78.5q35 0 69 -5t61.5 -11t48 -12t28.5 -8q0 68 -5 117.5t-23.5 83.5t-54.5 51.5t-97 17.5q-51 0 -93 -8.5t-74 -17.5t-52.5 -18t-26.5 -11q-23 -8 -31 16l-10 25q-8 23 12 30q2 2 22.5 11.5t56.5 20.5t87 20.5t115 9.5q94 0 146.5 -27t78 -75 t30.5 -113.5t5 -143.5v-454q0 -27 -27 -27h-24q-18 0 -25 23l-8 73q-41 -37 -113.5 -76.5t-171.5 -39.5q-115 0 -191.5 72.5t-76.5 199.5zM174 254q0 -90 54.5 -142.5t140.5 -52.5q47 0 90 12.5t78.5 32t62.5 42t41 40.5v226q-20 10 -76.5 26.5t-130.5 16.5 q-117 0 -188.5 -54.5t-71.5 -146.5zM221 1235q0 45 17.5 86t46 69.5t68.5 46t87 17.5q45 0 85 -17.5t68.5 -46t46 -69.5t17.5 -86q0 -47 -17.5 -86t-46 -68.5t-68.5 -46t-85 -16.5q-47 0 -87 16.5t-68.5 46t-46 68.5t-17.5 86zM286 1235q0 -61 46.5 -106.5t107.5 -45.5 q59 0 104 45.5t45 106.5t-45 106t-104 45q-61 0 -107.5 -45t-46.5 -106z" />
<glyph unicode="&#xe6;" horiz-adv-x="1443" d="M92 256q0 119 89 194.5t243 75.5q78 0 139.5 -10t77.5 -16q0 68 -5 117t-22.5 80.5t-52.5 47t-94 15.5q-53 0 -97 -8.5t-77 -17.5t-54.5 -18t-27.5 -11q-25 -6 -31 16l-8 33q-4 18 18 26q35 16 78 29q37 10 89.5 20.5t113.5 10.5q104 0 158.5 -31t77.5 -90 q53 57 122.5 89t157.5 32q80 0 148.5 -28t118 -78t77 -118.5t27.5 -150.5q0 -25 -4 -52.5t-27 -27.5h-606v-172q41 -68 111.5 -110t160.5 -42q82 0 143.5 26t98.5 50q14 10 21.5 10t15.5 -10l20 -28q10 -14 -8 -33q-16 -16 -46 -32.5t-70 -31t-87 -23.5t-94 -9 q-96 0 -171 36.5t-128 102.5q-20 -25 -53 -49.5t-75 -45t-91 -32.5t-100 -12q-121 0 -199 73.5t-78 202.5zM174 254q0 -96 61.5 -145.5t145.5 -49.5q43 0 84 11.5t75.5 28t61.5 38t41 39.5v246q-10 4 -67.5 17.5t-141.5 13.5q-113 0 -186.5 -53.5t-73.5 -145.5zM721 459h547 q0 59 -18.5 113.5t-53.5 95.5t-87 65.5t-122 24.5q-90 0 -157.5 -39t-108.5 -105v-155z" />
<glyph unicode="&#xe7;" horiz-adv-x="944" d="M96 410q0 92 35 170.5t93.5 136t137 90.5t164.5 33q59 0 109.5 -13.5t88.5 -34t64.5 -42t40.5 -39.5q16 -20 -4 -37l-20 -21q-10 -10 -21.5 -8t-21.5 12q-8 8 -27.5 24.5t-49.5 32t-70 27t-89 11.5q-70 0 -131 -26t-107 -72t-73 -107.5t-27 -134.5q0 -74 27 -137.5 t73 -109.5t107.5 -72.5t128.5 -26.5q57 0 101.5 15t76 35.5t51 40t27.5 29.5q20 23 39 4l23 -20q16 -16 6 -33q-12 -18 -40 -44.5t-69 -52.5t-95 -43t-118 -17h-14v-91q92 -10 155.5 -58t63.5 -140q0 -41 -15.5 -77t-42 -63.5t-63.5 -43t-80 -15.5q-59 0 -102 23.5t-57 46.5 t2 37l20 16q14 12 33 -6q10 -10 34.5 -26.5t69.5 -16.5q55 0 88 36t33 87q0 37 -17.5 61.5t-44 40.5t-60 24.5t-66.5 12.5q-25 6 -25 27v135q-72 14 -134 51t-108 92t-73 125t-27 152z" />
<glyph unicode="&#xe8;" horiz-adv-x="956" d="M96 412q0 88 28 165.5t80 136t127 92.5t169 34q80 0 148.5 -28t117.5 -78t76.5 -118.5t27.5 -150.5q0 -25 -4 -52.5t-26 -27.5h-654q2 -66 27 -125t67 -103t99 -70t127 -26q82 0 143.5 26t98.5 50q14 10 21 10t15 -10l21 -28q10 -14 -8 -33q-16 -16 -46 -32.5t-70 -31 t-87 -23.5t-94 -9q-94 0 -169 33.5t-127 92t-80 137.5t-28 169zM188 459h592q0 59 -18.5 113.5t-53 95.5t-87 65.5t-121.5 24.5q-68 0 -123 -23.5t-96 -63.5t-64.5 -94.5t-28.5 -117.5zM297 1337l21 41q6 10 17.5 10.5t17.5 -4.5l336 -184q18 -10 12 -29l-10 -20 q-8 -16 -33 -6l-352 162q-18 10 -9 30z" />
<glyph unicode="&#xe9;" horiz-adv-x="956" d="M96 412q0 88 28 165.5t80 136t127 92.5t169 34q80 0 148.5 -28t117.5 -78t76.5 -118.5t27.5 -150.5q0 -25 -4 -52.5t-26 -27.5h-654q2 -66 27 -125t67 -103t99 -70t127 -26q82 0 143.5 26t98.5 50q14 10 21 10t15 -10l21 -28q10 -14 -8 -33q-16 -16 -46 -32.5t-70 -31 t-87 -23.5t-94 -9q-94 0 -169 33.5t-127 92t-80 137.5t-28 169zM188 459h592q0 59 -18.5 113.5t-53 95.5t-87 65.5t-121.5 24.5q-68 0 -123 -23.5t-96 -63.5t-64.5 -94.5t-28.5 -117.5zM297 1178q-8 16 13 28l338 178q8 4 18 4.5t16 -10.5l21 -41q10 -23 -18 -37l-347 -157 q-14 -6 -19 -4t-9 12z" />
<glyph unicode="&#xea;" horiz-adv-x="956" d="M96 412q0 88 28 165.5t80 136t127 92.5t169 34q80 0 148.5 -28t117.5 -78t76.5 -118.5t27.5 -150.5q0 -25 -4 -52.5t-26 -27.5h-654q2 -66 27 -125t67 -103t99 -70t127 -26q82 0 143.5 26t98.5 50q14 10 21 10t15 -10l21 -28q10 -14 -8 -33q-16 -16 -46 -32.5t-70 -31 t-87 -23.5t-94 -9q-94 0 -169 33.5t-127 92t-80 137.5t-28 169zM188 459h592q0 59 -18.5 113.5t-53 95.5t-87 65.5t-121.5 24.5q-68 0 -123 -23.5t-96 -63.5t-64.5 -94.5t-28.5 -117.5zM217 1153q-10 14 8 29l248 200q10 10 21 11h6q10 0 20 -11l248 -200q18 -14 8 -29 l-18 -23q-4 -6 -11 -10t-20 6l-231 172l-230 -172q-12 -10 -19 -6t-11 10z" />
<glyph unicode="&#xeb;" horiz-adv-x="956" d="M96 412q0 88 28 165.5t80 136t127 92.5t169 34q80 0 148.5 -28t117.5 -78t76.5 -118.5t27.5 -150.5q0 -25 -4 -52.5t-26 -27.5h-654q2 -66 27 -125t67 -103t99 -70t127 -26q82 0 143.5 26t98.5 50q14 10 21 10t15 -10l21 -28q10 -14 -8 -33q-16 -16 -46 -32.5t-70 -31 t-87 -23.5t-94 -9q-94 0 -169 33.5t-127 92t-80 137.5t-28 169zM188 459h592q0 59 -18.5 113.5t-53 95.5t-87 65.5t-121.5 24.5q-68 0 -123 -23.5t-96 -63.5t-64.5 -94.5t-28.5 -117.5zM232 1288q0 31 20 51.5t49 20.5q31 0 50.5 -20.5t19.5 -51.5q0 -29 -19.5 -48 t-50.5 -19q-29 0 -49 19.5t-20 47.5zM625 1288q0 31 19.5 51.5t47.5 20.5q31 0 51.5 -20.5t20.5 -51.5q0 -29 -20.5 -48t-51.5 -19q-29 0 -48 19.5t-19 47.5z" />
<glyph unicode="&#xec;" horiz-adv-x="401" d="M2 1337l21 41q6 10 17.5 10.5t17.5 -4.5l336 -184q18 -10 12 -29l-10 -20q-8 -16 -33 -6l-352 162q-18 10 -9 30zM156 27v766q0 27 26 26h37q27 0 27 -26v-766q0 -12 -9.5 -19.5t-19.5 -7.5h-35q-27 0 -26 27z" />
<glyph unicode="&#xed;" horiz-adv-x="401" d="M2 1178q-8 16 13 28l338 178q8 4 18 4.5t16 -10.5l21 -41q10 -23 -18 -37l-347 -157q-14 -6 -19 -4t-9 12zM156 27v766q0 27 26 26h37q27 0 27 -26v-766q0 -12 -9.5 -19.5t-19.5 -7.5h-35q-27 0 -26 27z" />
<glyph unicode="&#xee;" horiz-adv-x="401" d="M-78 1153q-10 14 8 29l248 200q10 10 21 11h6q10 0 20 -11l248 -200q18 -14 8 -29l-18 -23q-4 -6 -11 -10t-20 6l-231 172l-230 -172q-12 -10 -19 -6t-11 10zM156 27v766q0 27 26 26h37q27 0 27 -26v-766q0 -12 -9.5 -19.5t-19.5 -7.5h-35q-27 0 -26 27z" />
<glyph unicode="&#xef;" horiz-adv-x="401" d="M-63 1288q0 31 20 51.5t49 20.5q31 0 50.5 -20.5t19.5 -51.5q0 -29 -19.5 -48t-50.5 -19q-29 0 -49 19.5t-20 47.5zM156 27v766q0 27 26 26h37q27 0 27 -26v-766q0 -12 -9.5 -19.5t-19.5 -7.5h-35q-27 0 -26 27zM330 1288q0 31 19.5 51.5t47.5 20.5q31 0 51.5 -20.5 t20.5 -51.5q0 -29 -20.5 -48t-51.5 -19q-29 0 -48 19.5t-19 47.5z" />
<glyph unicode="&#xf0;" horiz-adv-x="1132" d="M90 451q0 102 37 185t98.5 141.5t141 90t168.5 31.5q78 0 142 -19.5t113.5 -47t81 -55t43.5 -44.5q-25 147 -108.5 261t-181.5 194l-236 -137q-10 -4 -20.5 -2t-14.5 12l-6 10q-6 10 -4 20.5t12 14.5l213 123q-84 57 -147.5 89t-97.5 46q-25 8 -13 33l15 35q6 18 28 10 q47 -16 127 -57.5t170 -108.5l142 82q23 12 36 -10l7 -11q10 -20 -11 -34l-118 -70q61 -53 118.5 -121t102.5 -150.5t71.5 -182t26.5 -216.5q0 -123 -30.5 -229.5t-90 -185t-149.5 -123.5t-209 -45q-92 0 -175 36.5t-145.5 101t-99.5 150t-37 183.5zM180 446 q0 -78 29 -147.5t79 -121.5t116.5 -81.5t142.5 -29.5q98 0 171 39.5t122 107.5t72.5 155t23.5 181q0 16 -1 30.5t-3 30.5q-2 2 -28.5 35t-76 71t-122 68.5t-164.5 30.5q-74 0 -139.5 -26.5t-114.5 -75.5t-78 -117t-29 -150z" />
<glyph unicode="&#xf1;" horiz-adv-x="1013" d="M156 27v766q0 27 28 26h21q20 0 24 -20l9 -88q10 10 35.5 31.5t64.5 43t90 38t113 16.5q172 0 250.5 -101.5t78.5 -273.5v-438q0 -27 -26 -27h-37q-27 0 -27 27v438q0 141 -63.5 214t-179.5 73q-63 0 -115.5 -20.5t-91.5 -46.5t-61.5 -48.5t-24.5 -26.5v-583 q0 -27 -27 -27h-39q-23 0 -22 27zM201 1225q6 14 17 42.5t33.5 58.5t56.5 52.5t83 22.5q55 0 85 -29t49.5 -64.5t40 -64.5t57.5 -29q29 0 48 13.5t33.5 33t22.5 40t12 34.5q8 27 31 15l23 -9q6 -4 11 -9t1 -17q-2 -6 -11.5 -35t-31 -59.5t-57 -56t-89.5 -25.5 q-53 0 -82.5 29.5t-50 64.5t-41 64.5t-57.5 29.5q-29 0 -49.5 -14.5t-33.5 -35t-21.5 -42t-12.5 -35.5q-6 -25 -30 -14l-25 10q-20 6 -12 29z" />
<glyph unicode="&#xf2;" horiz-adv-x="1011" d="M94 412q0 88 32 165.5t87 136t131 92.5t162 34t160.5 -34t131 -92.5t88.5 -136t32 -165.5q0 -90 -32 -169t-88.5 -137.5t-131 -92t-160.5 -33.5t-162 33.5t-131 92t-87 137.5t-32 169zM182 412q0 -74 24.5 -137.5t68.5 -110.5t103.5 -74t127.5 -27t126 27t102 74 t68.5 110.5t24.5 137.5q0 70 -24.5 132t-68.5 109t-102.5 74t-125.5 27q-68 0 -127.5 -27t-103.5 -74t-68.5 -109t-24.5 -132zM303 1337l21 41q6 10 17.5 10.5t17.5 -4.5l336 -184q18 -10 12 -29l-10 -20q-8 -16 -33 -6l-352 162q-18 10 -9 30z" />
<glyph unicode="&#xf3;" horiz-adv-x="1011" d="M94 412q0 88 32 165.5t87 136t131 92.5t162 34t160.5 -34t131 -92.5t88.5 -136t32 -165.5q0 -90 -32 -169t-88.5 -137.5t-131 -92t-160.5 -33.5t-162 33.5t-131 92t-87 137.5t-32 169zM182 412q0 -74 24.5 -137.5t68.5 -110.5t103.5 -74t127.5 -27t126 27t102 74 t68.5 110.5t24.5 137.5q0 70 -24.5 132t-68.5 109t-102.5 74t-125.5 27q-68 0 -127.5 -27t-103.5 -74t-68.5 -109t-24.5 -132zM303 1178q-8 16 13 28l338 178q8 4 18 4.5t16 -10.5l21 -41q10 -23 -18 -37l-347 -157q-14 -6 -19 -4t-9 12z" />
<glyph unicode="&#xf4;" horiz-adv-x="1011" d="M94 412q0 88 32 165.5t87 136t131 92.5t162 34t160.5 -34t131 -92.5t88.5 -136t32 -165.5q0 -90 -32 -169t-88.5 -137.5t-131 -92t-160.5 -33.5t-162 33.5t-131 92t-87 137.5t-32 169zM182 412q0 -74 24.5 -137.5t68.5 -110.5t103.5 -74t127.5 -27t126 27t102 74 t68.5 110.5t24.5 137.5q0 70 -24.5 132t-68.5 109t-102.5 74t-125.5 27q-68 0 -127.5 -27t-103.5 -74t-68.5 -109t-24.5 -132zM223 1153q-10 14 8 29l248 200q10 10 21 11h6q10 0 20 -11l248 -200q18 -14 8 -29l-18 -23q-4 -6 -11 -10t-20 6l-231 172l-230 -172 q-12 -10 -19 -6t-11 10z" />
<glyph unicode="&#xf5;" horiz-adv-x="1011" d="M94 412q0 88 32 165.5t87 136t131 92.5t162 34t160.5 -34t131 -92.5t88.5 -136t32 -165.5q0 -90 -32 -169t-88.5 -137.5t-131 -92t-160.5 -33.5t-162 33.5t-131 92t-87 137.5t-32 169zM182 412q0 -74 24.5 -137.5t68.5 -110.5t103.5 -74t127.5 -27t126 27t102 74 t68.5 110.5t24.5 137.5q0 70 -24.5 132t-68.5 109t-102.5 74t-125.5 27q-68 0 -127.5 -27t-103.5 -74t-68.5 -109t-24.5 -132zM203 1225q6 14 17 42.5t33.5 58.5t56.5 52.5t83 22.5q55 0 85 -29t49.5 -64.5t40 -64.5t57.5 -29q29 0 48 13.5t33.5 33t22.5 40t12 34.5 q8 27 31 15l23 -9q6 -4 11 -9t1 -17q-2 -6 -11.5 -35t-31 -59.5t-57 -56t-89.5 -25.5q-53 0 -82.5 29.5t-50 64.5t-41 64.5t-57.5 29.5q-29 0 -49.5 -14.5t-33.5 -35t-21.5 -42t-12.5 -35.5q-6 -25 -30 -14l-25 10q-20 6 -12 29z" />
<glyph unicode="&#xf6;" horiz-adv-x="1011" d="M94 412q0 88 32 165.5t87 136t131 92.5t162 34t160.5 -34t131 -92.5t88.5 -136t32 -165.5q0 -90 -32 -169t-88.5 -137.5t-131 -92t-160.5 -33.5t-162 33.5t-131 92t-87 137.5t-32 169zM182 412q0 -74 24.5 -137.5t68.5 -110.5t103.5 -74t127.5 -27t126 27t102 74 t68.5 110.5t24.5 137.5q0 70 -24.5 132t-68.5 109t-102.5 74t-125.5 27q-68 0 -127.5 -27t-103.5 -74t-68.5 -109t-24.5 -132zM238 1288q0 31 20 51.5t49 20.5q31 0 50.5 -20.5t19.5 -51.5q0 -29 -19.5 -48t-50.5 -19q-29 0 -49 19.5t-20 47.5zM631 1288q0 31 19.5 51.5 t47.5 20.5q31 0 51.5 -20.5t20.5 -51.5q0 -29 -20.5 -48t-51.5 -19q-29 0 -48 19.5t-19 47.5z" />
<glyph unicode="&#xf7;" horiz-adv-x="1198" d="M178 696v31q0 27 27 27h788q25 0 25 -27v-31q0 -27 -25 -26h-788q-27 0 -27 26zM508 389q0 35 24.5 58.5t59.5 23.5t58.5 -23.5t23.5 -58.5t-23.5 -59.5t-58.5 -24.5t-59.5 24.5t-24.5 59.5zM508 1032q0 35 24.5 58.5t59.5 23.5t58.5 -23.5t23.5 -58.5t-23.5 -59.5 t-58.5 -24.5t-59.5 24.5t-24.5 59.5z" />
<glyph unicode="&#xf8;" horiz-adv-x="1009" d="M94 410q0 88 32 165.5t87 136t131 93.5t162 35q88 0 158.5 -33t123.5 -86l48 45q18 18 36 0l9 -8q23 -18 0 -37l-50 -49q41 -55 62.5 -123t21.5 -139q0 -90 -31.5 -168t-87 -136.5t-130 -92t-160.5 -33.5t-159 31.5t-128 86.5l-35 -35q-8 -8 -18 -7t-19 10l-6 8 q-20 18 -2 37l37 36q-39 55 -60.5 121t-21.5 142zM184 410q0 -113 58 -201l483 450q-43 45 -98.5 70t-120.5 25q-68 0 -127.5 -28t-102.5 -74t-67.5 -109.5t-24.5 -132.5zM283 160q43 -45 100 -71t123 -26q68 0 126 27t102 74t68.5 109.5t24.5 136.5q0 111 -61 200z" />
<glyph unicode="&#xf9;" d="M143 352v441q0 27 27 26h37q27 0 26 -26v-441q0 -143 63.5 -214.5t180.5 -71.5q63 0 112.5 20t84.5 47t53 49.5t21 26.5v584q0 27 26 26h37q27 0 27 -26v-766q0 -27 -27 -27h-25q-12 0 -17 7t-7 18l-8 79q-8 -10 -31 -31.5t-58.5 -42t-84 -35.5t-109.5 -15 q-172 0 -250 99t-78 273zM307 1337l21 41q6 10 17.5 10.5t17.5 -4.5l336 -184q18 -10 12 -29l-10 -20q-8 -16 -33 -6l-352 162q-18 10 -9 30z" />
<glyph unicode="&#xfa;" d="M143 352v441q0 27 27 26h37q27 0 26 -26v-441q0 -143 63.5 -214.5t180.5 -71.5q63 0 112.5 20t84.5 47t53 49.5t21 26.5v584q0 27 26 26h37q27 0 27 -26v-766q0 -27 -27 -27h-25q-12 0 -17 7t-7 18l-8 79q-8 -10 -31 -31.5t-58.5 -42t-84 -35.5t-109.5 -15 q-172 0 -250 99t-78 273zM307 1178q-8 16 13 28l338 178q8 4 18 4.5t16 -10.5l21 -41q10 -23 -18 -37l-347 -157q-14 -6 -19 -4t-9 12z" />
<glyph unicode="&#xfb;" d="M143 352v441q0 27 27 26h37q27 0 26 -26v-441q0 -143 63.5 -214.5t180.5 -71.5q63 0 112.5 20t84.5 47t53 49.5t21 26.5v584q0 27 26 26h37q27 0 27 -26v-766q0 -27 -27 -27h-25q-12 0 -17 7t-7 18l-8 79q-8 -10 -31 -31.5t-58.5 -42t-84 -35.5t-109.5 -15 q-172 0 -250 99t-78 273zM217 1153q-10 14 8 29l248 200q10 10 21 11h6q10 0 20 -11l248 -200q18 -14 8 -29l-18 -23q-4 -6 -11 -10t-20 6l-231 172l-230 -172q-12 -10 -19 -6t-11 10z" />
<glyph unicode="&#xfc;" d="M143 352v441q0 27 27 26h37q27 0 26 -26v-441q0 -143 63.5 -214.5t180.5 -71.5q63 0 112.5 20t84.5 47t53 49.5t21 26.5v584q0 27 26 26h37q27 0 27 -26v-766q0 -27 -27 -27h-25q-12 0 -17 7t-7 18l-8 79q-8 -10 -31 -31.5t-58.5 -42t-84 -35.5t-109.5 -15 q-172 0 -250 99t-78 273zM240 1288q0 31 20 51.5t49 20.5q31 0 50.5 -20.5t19.5 -51.5q0 -29 -19.5 -48t-50.5 -19q-29 0 -49 19.5t-20 47.5zM633 1288q0 31 19.5 51.5t47.5 20.5q31 0 51.5 -20.5t20.5 -51.5q0 -29 -20.5 -48t-51.5 -19q-29 0 -48 19.5t-19 47.5z" />
<glyph unicode="&#xfd;" horiz-adv-x="907" d="M27 808.5q2 10.5 16 10.5h45q16 0 27 -18l350 -692h4l319 692q8 18 27 18h45q14 0 16.5 -10t-4.5 -23l-643 -1384q-6 -16 -26 -16h-47q-27 0 -15 28l277 594l-387 778q-6 12 -4 22.5zM264 1178q-8 16 13 28l338 178q8 4 18 4.5t16 -10.5l21 -41q10 -23 -18 -37l-347 -157 q-14 -6 -19 -4t-9 12z" />
<glyph unicode="&#xfe;" d="M156 -588v1995q0 12 9 19.5t19 7.5h33q27 0 27 -27v-664q8 8 29.5 23.5t54 32t78 29t100.5 12.5q86 0 157.5 -34t124 -93.5t82 -138t29.5 -166.5q0 -92 -30.5 -170t-85 -135.5t-130 -90t-166.5 -32.5q-51 0 -92 10t-71.5 24.5t-51 28.5t-28.5 23v-654q0 -27 -27 -26h-35 q-27 0 -26 26zM246 164q2 -4 18.5 -19.5t46 -33t71.5 -31.5t95 -14q74 0 135.5 25.5t105.5 71.5t68.5 108.5t24.5 136.5q0 72 -22.5 135t-63.5 110t-98.5 75t-126.5 28q-59 0 -105.5 -16.5t-79 -38t-50 -40t-19.5 -22.5v-475z" />
<glyph unicode="&#xff;" horiz-adv-x="907" d="M27 808.5q2 10.5 16 10.5h45q16 0 27 -18l350 -692h4l319 692q8 18 27 18h45q14 0 16.5 -10t-4.5 -23l-643 -1384q-6 -16 -26 -16h-47q-27 0 -15 28l277 594l-387 778q-6 12 -4 22.5zM201 1288q0 31 20 51.5t49 20.5q31 0 50.5 -20.5t19.5 -51.5q0 -29 -19.5 -48 t-50.5 -19q-29 0 -49 19.5t-20 47.5zM594 1288q0 31 19.5 51.5t47.5 20.5q31 0 51.5 -20.5t20.5 -51.5q0 -29 -20.5 -48t-51.5 -19q-29 0 -48 19.5t-19 47.5z" />
<glyph unicode="&#x152;" horiz-adv-x="1998" d="M115 715q0 154 57 289t156.5 234t233.5 157.5t288 58.5q57 0 104 -8t70 -12h817q25 0 25 -27v-35q0 -27 -25 -26h-749v-566h649q27 0 26 -26v-35q0 -27 -26 -27h-649v-606h749q25 0 25 -27v-32q0 -27 -25 -27h-815q-23 -4 -71 -12t-105 -8q-154 0 -288 57t-233.5 156.5 t-156.5 233.5t-57 288zM203 715q0 -135 51 -252t138 -205t205 -138t253 -50q78 0 143 14v1262q-35 8 -69.5 12t-73.5 4q-135 0 -253 -51t-205 -138.5t-138 -205t-51 -252.5z" />
<glyph unicode="&#x153;" horiz-adv-x="1613" d="M94 412q0 88 32 165.5t87 136t130 92.5t161 34q100 0 188 -43t146 -121q53 78 131 121t186 43q80 0 147.5 -28t117.5 -79t79 -120.5t29 -153.5q0 -25 -4 -52.5t-27 -27.5h-620v-135q14 -35 42.5 -67t66.5 -58.5t83 -42t92 -15.5q82 0 143.5 26t98.5 50q14 10 21.5 10 t15.5 -10l20 -28q10 -14 -8 -33q-16 -16 -46 -32.5t-70 -31t-87 -23.5t-94 -9q-117 0 -193.5 48t-132.5 122q-57 -78 -140 -124t-185 -46q-86 0 -161 33.5t-130 92t-87 137.5t-32 169zM182 412q0 -74 24.5 -137.5t68.5 -110.5t102.5 -74t126.5 -27q51 0 97 17.5t85 43.5 t66.5 57.5t40.5 62.5v348q-16 25 -44 53.5t-66 53t-83 40t-96 15.5q-68 0 -126.5 -27t-102.5 -74t-68.5 -109t-24.5 -132zM877 453h561q0 59 -18.5 114.5t-54.5 97.5t-88 66.5t-122 24.5q-86 0 -165 -44t-113 -122v-137z" />
<glyph unicode="&#x178;" horiz-adv-x="1146" d="M-9 1424.5q5 9.5 21 9.5h62q16 0 26 -13l467 -637l475 637q8 12 27 13h61q16 0 21.5 -9.5t-4.5 -21.5l-533 -705v-671q0 -27 -26 -27q-20 0 -45 1t-25 26v669l-522 707q-10 12 -5 21.5zM285 1708q0 31 20.5 51.5t48.5 20.5q31 0 51.5 -20.5t20.5 -51.5q0 -29 -20.5 -48.5 t-51.5 -19.5q-29 0 -49 19.5t-20 48.5zM713 1708q0 31 20.5 51.5t48.5 20.5q31 0 51.5 -20.5t20.5 -51.5q0 -29 -20.5 -48.5t-51.5 -19.5q-29 0 -49 19.5t-20 48.5z" />
<glyph unicode="&#x2c6;" horiz-adv-x="763" d="M98 1153q-10 14 8 29l248 200q10 10 21 11h6q10 0 20 -11l248 -200q18 -14 8 -29l-18 -23q-4 -6 -11 -10t-20 6l-231 172l-230 -172q-12 -10 -19 -6t-11 10z" />
<glyph unicode="&#x2dc;" horiz-adv-x="778" d="M72 1225q6 14 17 42.5t33.5 58.5t56.5 52.5t83 22.5q55 0 85 -29t49.5 -64.5t40 -64.5t57.5 -29q29 0 48 13.5t33.5 33t22.5 40t12 34.5q8 27 31 15l23 -9q6 -4 11 -9t1 -17q-2 -6 -11.5 -35t-31 -59.5t-57 -56t-89.5 -25.5q-53 0 -82.5 29.5t-50 64.5t-41 64.5 t-57.5 29.5q-29 0 -49.5 -14.5t-33.5 -35t-21.5 -42t-12.5 -35.5q-6 -25 -30 -14l-25 10q-20 6 -12 29z" />
<glyph unicode="&#x2000;" horiz-adv-x="990" />
<glyph unicode="&#x2001;" horiz-adv-x="1980" />
<glyph unicode="&#x2002;" horiz-adv-x="990" />
<glyph unicode="&#x2003;" horiz-adv-x="1980" />
<glyph unicode="&#x2004;" horiz-adv-x="660" />
<glyph unicode="&#x2005;" horiz-adv-x="495" />
<glyph unicode="&#x2006;" horiz-adv-x="330" />
<glyph unicode="&#x2007;" horiz-adv-x="330" />
<glyph unicode="&#x2008;" horiz-adv-x="247" />
<glyph unicode="&#x2009;" horiz-adv-x="396" />
<glyph unicode="&#x200a;" horiz-adv-x="110" />
<glyph unicode="&#x2010;" horiz-adv-x="978" d="M233 500v22q0 27 25 27h463q27 0 27 -27v-22q0 -27 -27 -27h-463q-25 0 -25 27z" />
<glyph unicode="&#x2011;" horiz-adv-x="978" d="M233 500v22q0 27 25 27h463q27 0 27 -27v-22q0 -27 -27 -27h-463q-25 0 -25 27z" />
<glyph unicode="&#x2012;" horiz-adv-x="978" d="M233 500v22q0 27 25 27h463q27 0 27 -27v-22q0 -27 -27 -27h-463q-25 0 -25 27z" />
<glyph unicode="&#x2013;" horiz-adv-x="1318" d="M240 502v16q0 27 26 27h787q27 0 26 -27v-16q0 -25 -26 -25h-787q-27 0 -26 25z" />
<glyph unicode="&#x2014;" horiz-adv-x="1765" d="M240 502v16q0 27 26 27h1233q27 0 27 -27v-16q0 -25 -27 -25h-1233q-27 0 -26 25z" />
<glyph unicode="&#x2018;" horiz-adv-x="387" d="M88 1159q0 61 17.5 110.5t42 85.5t49 58.5t39.5 30.5q25 14 34 0l17 -21q14 -16 -8 -32q-4 -4 -20.5 -16.5t-36 -37t-37 -59.5t-21.5 -82q-2 -45 10 -78q16 10 33 10q41 0 61.5 -24.5t20.5 -56.5q0 -37 -23.5 -58.5t-62.5 -21.5q-45 0 -80 45t-35 147z" />
<glyph unicode="&#x2019;" horiz-adv-x="387" d="M104 1374q0 37 24 58.5t62 21.5q45 0 80 -45t35 -147q0 -61 -17.5 -110.5t-42 -85.5t-49 -58.5t-38.5 -30.5q-25 -14 -35 0l-17 20q-14 16 9 33q4 2 20.5 15.5t35.5 38t36.5 59.5t21.5 82q2 45 -10 78q-16 -10 -33 -11q-41 0 -61.5 24.5t-20.5 57.5z" />
<glyph unicode="&#x201a;" horiz-adv-x="468" d="M143 59q0 37 23.5 58.5t62.5 21.5q45 0 80 -45t35 -147q0 -61 -17.5 -110.5t-42 -85.5t-49 -58.5t-38.5 -30.5q-25 -14 -35 0l-17 21q-14 16 9 32q4 2 20 15.5t35.5 38t37 59.5t21.5 82q2 45 -10 78q-16 -10 -33 -11q-41 0 -61.5 24.5t-20.5 57.5z" />
<glyph unicode="&#x201c;" horiz-adv-x="755" d="M90 1161q0 61 17.5 110.5t42 85.5t49 58.5t39.5 30.5q25 14 34 0l17 -21q14 -16 -8 -32q-4 -4 -20.5 -16.5t-36 -37t-37 -59.5t-21.5 -82q-2 -45 10 -78q16 10 33 10q41 0 61.5 -24.5t20.5 -56.5q0 -37 -23.5 -58.5t-62.5 -21.5q-45 0 -80 45t-35 147zM457 1161 q0 61 17.5 110.5t42 85.5t49 58.5t38.5 30.5q25 14 35 0l16 -21q14 -16 -8 -32q-4 -4 -20.5 -16.5t-36 -37t-36.5 -59.5t-22 -82q-2 -45 11 -78q16 10 32 10q41 0 61.5 -24.5t20.5 -56.5q0 -37 -23.5 -58.5t-62.5 -21.5q-45 0 -79.5 45t-34.5 147z" />
<glyph unicode="&#x201d;" horiz-adv-x="753" d="M104 1374q0 37 24 58.5t62 21.5q45 0 80 -45t35 -147q0 -61 -17.5 -110.5t-42 -85.5t-49 -58.5t-38.5 -30.5q-25 -14 -35 0l-17 20q-14 16 9 33q4 2 20.5 15.5t35.5 38t36.5 59.5t21.5 82q2 45 -10 78q-16 -10 -33 -11q-41 0 -61.5 24.5t-20.5 57.5zM471 1374 q0 37 23.5 58.5t62.5 21.5q45 0 80 -45t35 -147q0 -61 -17.5 -110.5t-42 -85.5t-49 -58.5t-39.5 -30.5q-25 -14 -35 0l-16 20q-14 16 8 33q4 2 20.5 15.5t36 38t37 59.5t21.5 82q2 45 -10 78q-16 -10 -33 -11q-41 0 -61.5 24.5t-20.5 57.5z" />
<glyph unicode="&#x201e;" horiz-adv-x="835" d="M143 59q0 37 23.5 58.5t62.5 21.5q45 0 80 -45t35 -147q0 -61 -17.5 -110.5t-42 -85.5t-49 -58.5t-38.5 -30.5q-25 -14 -35 0l-17 21q-14 16 9 32q4 2 20 15.5t35.5 38t37 59.5t21.5 82q2 45 -10 78q-16 -10 -33 -11q-41 0 -61.5 24.5t-20.5 57.5zM510 59q0 37 23.5 58.5 t62.5 21.5q45 0 80 -45t35 -147q0 -61 -17.5 -110.5t-42 -85.5t-49 -58.5t-39.5 -30.5q-25 -14 -35 0l-16 21q-14 16 8 32q4 2 20.5 15.5t36 38t37 59.5t21.5 82q2 45 -10 78q-16 -10 -33 -11q-41 0 -61.5 24.5t-20.5 57.5z" />
<glyph unicode="&#x2022;" horiz-adv-x="724" d="M213 461q0 63 43 107t102 44q63 0 107.5 -44t44.5 -107q0 -59 -44.5 -102.5t-107.5 -43.5q-59 0 -102 43t-43 103z" />
<glyph unicode="&#x2026;" horiz-adv-x="1277" d="M160 63q0 35 24.5 58.5t59.5 23.5t58.5 -23.5t23.5 -58.5t-23.5 -59t-58.5 -24t-59.5 24t-24.5 59zM553 63q0 35 23.5 58.5t58.5 23.5t58.5 -23.5t23.5 -58.5t-23.5 -59t-58.5 -24t-58.5 24t-23.5 59zM952 63q0 35 23.5 58.5t58.5 23.5t58.5 -23.5t23.5 -58.5t-23.5 -59 t-58.5 -24t-58.5 24t-23.5 59z" />
<glyph unicode="&#x202f;" horiz-adv-x="396" />
<glyph unicode="&#x2039;" horiz-adv-x="501" d="M89 425q1 9 5 17l221 316q10 16 18.5 17t14.5 1h33q12 0 16 -10t-6 -27l-192 -313l192 -322q10 -16 6 -26t-16 -10h-33q-6 0 -14 1t-19 17l-221 322q-6 8 -5 17z" />
<glyph unicode="&#x203a;" horiz-adv-x="501" d="M104.5 78q-4.5 10 6.5 26l192 322l-192 313q-10 16 -6 26.5t16 10.5h33q6 0 14 -1t18 -17l222 -316q4 -8 5 -17t-5 -17l-222 -322q-10 -16 -18 -17t-14 -1h-33q-12 0 -16.5 10z" />
<glyph unicode="&#x205f;" horiz-adv-x="495" />
<glyph unicode="&#x20ac;" horiz-adv-x="1505" d="M41 557v10q0 27 25 27h96q-4 29 -7 58.5t-3 62.5v28.5t2 28.5h-88q-10 0 -17.5 9.5t-7.5 19.5v10q0 27 25 27h96q20 131 85.5 243.5t163 195.5t220.5 130t262 47q158 0 277.5 -49t220.5 -141q8 -8 9 -18.5t-7 -18.5l-31 -31q-20 -20 -41 0q-176 166 -428 166 q-119 0 -224.5 -40t-188.5 -110.5t-138 -167t-76 -206.5h662q14 0 20 -10.5t6 -20.5v-8q0 -27 -26 -27h-672q-2 -14 -2 -27.5v-29.5q0 -31 2 -61.5t8 -59.5h584q12 0 18 -10.5t6 -20.5v-8q0 -25 -24 -25h-567q29 -100 87 -184t138 -145.5t178 -95t209 -33.5q74 0 134 12 t110.5 34.5t95.5 54.5t92 71q20 16 33 4l35 -35q18 -18 0 -35q-106 -102 -234.5 -150t-265.5 -48q-129 0 -246 40.5t-211 114.5t-161.5 174.5t-98.5 220.5h-110q-25 0 -25 27z" />
<glyph unicode="&#x2122;" horiz-adv-x="1476" d="M100 1397v10q0 27 27 27h426q27 0 27 -27v-14q0 -27 -27 -27h-176v-532q0 -27 -27 -27h-20q-10 0 -17.5 7t-7.5 20v532h-178q-12 0 -19.5 9t-7.5 22zM612 838l140 596q6 20 22 20h10q12 0 21 -20l176 -502h2l178 502q8 20 21 20h10q16 0 22 -20l140 -596q4 -12 -1 -21.5 t-20 -9.5h-22q-18 0 -25 20l-108 445h-2l-164 -459q-6 -16 -19 -16h-20q-12 0 -19 16l-166 459h-2l-106 -445q-6 -20 -25 -20h-22q-14 0 -19.5 9t-1.5 22z" />
<glyph unicode="&#x25fc;" horiz-adv-x="819" d="M0 0v819h819v-819h-819z" />
<glyph unicode="&#xfb03;" horiz-adv-x="1609" d="M55 766v27q0 27 27 26h125v232q0 100 28.5 172.5t76.5 119t111.5 69t135.5 22.5q55 0 99 -11.5t78 -27t58.5 -31.5t39.5 -29q47 59 114.5 89t145.5 30q57 0 106 -12t88 -30.5t66.5 -37t40.5 -31.5q6 -4 6 -13t-4 -17l-23 -33q-10 -16 -33 -2q-14 8 -36.5 24.5t-53 32 t-69.5 26.5t-86 11q-109 0 -178.5 -73.5t-69.5 -208.5v-271h579q27 0 27 -26v-766q0 -12 -9 -19.5t-20 -7.5h-34q-27 0 -27 27v712h-516v-712q0 -12 -9.5 -19.5t-19.5 -7.5h-33q-27 0 -26 27v712h-465v-712q0 -12 -9.5 -19.5t-19.5 -7.5h-33q-27 0 -26 27v712h-125 q-14 0 -20.5 8.5t-6.5 18.5zM295 819h465v273q0 90 33 165q-12 12 -36 29t-54.5 31t-67.5 24.5t-76 10.5q-115 0 -189.5 -73t-74.5 -228v-232z" />
<glyph unicode="&#xfb04;" horiz-adv-x="1617" d="M57 766v27q0 27 27 26h123v232q0 100 28.5 172.5t76.5 120t112.5 69t138.5 21.5q51 0 94 -10.5t76 -26t57.5 -31.5t38.5 -29q47 59 116 88t153 29q57 0 105 -14.5t84 -32.5t59.5 -36.5t33.5 -27.5l9 66q2 10 9 17.5t25 7.5h13q27 0 26 -27v-1380q0 -27 -26 -27 q-18 0 -40 2t-22 25v1212q-8 6 -29.5 27.5t-56.5 43t-82 39t-106 17.5q-47 0 -92 -14.5t-81 -47t-57.5 -83t-21.5 -119.5v-283h303q27 0 27 -24v-31q0 -25 -27 -25h-303v-712q0 -12 -9.5 -19.5t-19.5 -7.5h-33q-27 0 -26 27v712h-463l-2 -712q0 -12 -9.5 -19.5t-19.5 -7.5 h-33q-27 0 -26 27v712h-123q-14 0 -20.5 8.5t-6.5 18.5zM297 819h463v283q0 88 28 155q-12 14 -34.5 31t-53 31t-65.5 23.5t-72 9.5q-123 0 -194.5 -73t-71.5 -232v-228z" />
</font>
</defs>
</svg>
